<?xml version="1.0" encoding="utf-8"?>
<!-- Generator: Adobe Illustrator 18.1.1, SVG Export Plug-In . SVG Version: 6.00 Build 0)  -->
<svg version="1.1" id="Layer_1" xmlns="http://www.w3.org/2000/svg" xmlns:xlink="http://www.w3.org/1999/xlink" x="0px" y="0px"
	 viewBox="0 0 42.3 42.3" enable-background="new 0 0 42.3 42.3" xml:space="preserve">
<g>
	<g>
		<circle fill="#F36B21" cx="21.1" cy="21.1" r="21.1"/>
		<g>
			<path fill="#FFFFFF" d="M7.6,27.8c-0.7-0.7-0.7-1.5-0.7-2.3c0-2.5,0-4.9,0-7.4c0-1.1,0.4-1.8,1.4-2.3c1.4-0.7,2.8-1.4,4.1-2.2
				c1.8-1.1,3.7,0.3,3.6,2.1c0,0.9,0,1.9,0,2.9c0,0.4,0.1,0.8,0.4,1.1c0.5,0.5,1,1,1.4,1.6c0.5,0.6,0.4,1.3-0.1,1.7
				c-0.4,0.3-0.8,0.3-1.2,0c-0.9-0.8-1.7-1.7-2.4-2.6c-0.4-0.5-0.2-1.1-0.2-1.6c0-0.5-0.1-0.7-0.6-0.4c-0.8,0.5-1.7,0.9-2.5,1.4
				c-0.4,0.2-0.5,0.5-0.5,0.9c0,1.7,0,3.4,0,5.1c0,0.8,0,1.6-0.7,2.3c1.2,0,2.4,0,3.5,0c0.7,0,1.4-0.5,2-0.9
				c0.7-0.4,1.1-0.3,1.6,0.3c0.8,0.9,1.6,1.8,2.4,2.7c0.1,0.1,0.3,0.3,0.4,0.4c0.1,0.1,0.3,0.1,0.4,0c0.1-0.1,0-0.2,0-0.4
				c-0.2-0.5-0.4-1-0.6-1.5c-0.2-0.5-0.1-0.7,0.4-0.7c0.1,0,0.2,0,0.3,0c0.3,0,0.6,0.1,0.6-0.4c0-0.4-0.2-0.5-0.5-0.6
				c-1-0.3-1.6-1.1-1.6-2c0-0.4,0.2-0.6,0.6-0.5c0.5,0.1,1,0.3,1.5,0.6c0.1-0.7,0.1-1.4,0-2c0-0.4-0.3-0.4-0.6-0.5
				c-0.9-0.3-1.5-1-1.6-1.9c0-0.5,0.2-0.7,0.7-0.6c0.5,0.1,1,0.3,1.5,0.7c0-1,0-1.8,0-2.6c0-0.5-0.1-1.1,0.6-1.1
				c0.6,0,0.5,0.7,0.5,1.1c0,0.2,0,0.5,0,0.8c0.4-0.2,0.8-0.5,1.2-0.6c0.8-0.2,1.1,0,0.9,0.9c-0.2,0.8-0.7,1.4-1.5,1.6
				c-0.5,0.1-0.7,0.4-0.6,0.9c0,0.5,0,1,0,1.7c0.5-0.3,0.9-0.6,1.3-0.7c0.7-0.2,0.9,0,0.8,0.7c-0.2,0.9-0.6,1.5-1.5,1.8
				c-0.5,0.1-0.6,0.4-0.6,0.8c0,0.4,0,0.8,0,1.2c0,0.5,0.2,0.7,0.7,0.7c1,0,1,0,0.6,0.9c-0.2,0.4-0.3,0.8-0.5,1.2
				c-0.1,0.1-0.2,0.3,0,0.4c0.1,0.1,0.3,0,0.4-0.1c0.3-0.3,0.6-0.6,0.9-1c0.7-0.8,1.4-1.6,2.1-2.4c0.3-0.4,0.6-0.5,1-0.2
				c1.5,1,3.2,1.2,4.9,1c0.3,0,0.7,0.1,1-0.1c-0.7-0.7-0.7-1.5-0.7-2.4c0-1.6,0-3.3,0-4.9c0-0.5-0.1-0.7-0.6-0.9
				c-0.9-0.4-1.8-0.9-2.6-1.4c-0.4-0.2-0.5-0.1-0.4,0.3c0.3,1.4-0.4,2.4-1.4,3.2c-0.3,0.3-0.6,0.7-0.9,1c-0.6,0.6-1.1,0.6-1.6,0.2
				c-0.5-0.5-0.6-1-0.1-1.6c0.4-0.5,0.8-0.9,1.3-1.4c0.4-0.4,0.6-0.9,0.6-1.5c0-1,0-1.9,0-2.9c0-1.7,1.8-2.7,3.3-1.9
				c1.4,0.8,2.9,1.6,4.3,2.3c1,0.5,1.4,1.2,1.4,2.3c0,2.5,0,5.1,0,7.6c0,0.7,0,1.4-0.7,2.1c0.7,0,1.2,0,1.7,0c0.4,0,0.6,0.2,0.6,0.6
				c0,0.9,0,1.8,0,2.7c0,0.4-0.2,0.5-0.5,0.5c-0.2,0-0.4,0-0.6,0c-9.9,0-19.8,0-29.7,0c-1.1,0-1.1,0-1.1-1.1c0-0.7,0-1.4,0-2.1
				c0-0.4,0.2-0.6,0.6-0.6C6.3,27.8,6.9,27.8,7.6,27.8z"/>
			<path fill="#FFFFFF" d="M26.8,13c0,1.3-0.9,2.2-2.1,2.2c-1.2,0-2.2-1-2.2-2.2c0-1.2,1-2.2,2.2-2.2C25.8,10.8,26.8,11.7,26.8,13z"
				/>
			<path fill="#FFFFFF" d="M20,13c0,1.2-0.9,2.1-2.1,2.1c-1.3,0-2.2-1-2.2-2.2c0-1.2,1-2.1,2.2-2.2C19.1,10.7,20,11.8,20,13z"/>
		</g>
	</g>
</g>
</svg>
