<?xml version="1.0" encoding="utf-8"?>
<!-- Generator: Adobe Illustrator 18.1.1, SVG Export Plug-In . SVG Version: 6.00 Build 0)  -->
<svg version="1.1" id="Layer_1" xmlns="http://www.w3.org/2000/svg" xmlns:xlink="http://www.w3.org/1999/xlink" x="0px" y="0px"
	 viewBox="0 0 151.2 170.4" enable-background="new 0 0 151.2 170.4" xml:space="preserve">
<g>
	<g>
		<g>
			<path fill="#71A4A1" d="M19.1,131.4l2.1,0.4c-1.2,4.9-5.2,8-10.3,8c-6.1,0-10.9-4.8-10.9-11c0-6.2,4.8-11,10.9-11
				c5.1,0,9.1,3.1,10.3,7.9l-2.1,0.6c-1.1-4-4.1-6.4-8.2-6.4c-4.9,0-8.7,3.9-8.7,9c0,5,3.8,8.9,8.7,8.9
				C15,137.8,18,135.4,19.1,131.4z"/>
			<path fill="#71A4A1" d="M44.6,130.2c0,5.8-3.6,9.7-8.9,9.7c-5.3,0-8.9-3.9-8.9-9.7v-12H29v12c0,4.6,2.7,7.5,6.7,7.5
				c4,0,6.7-3,6.7-7.5v-12h2.2V130.2z"/>
			<path fill="#71A4A1" d="M65.4,139.5H51.5v-21.3h2.2v19.3h11.7V139.5z"/>
			<path fill="#71A4A1" d="M75.5,120.2v19.3h-2.2v-19.3h-7.2v-2h16.6v2H75.5z"/>
			<path fill="#71A4A1" d="M105.4,130.2c0,5.8-3.6,9.7-8.9,9.7c-5.3,0-8.9-3.9-8.9-9.7v-12h2.2v12c0,4.6,2.7,7.5,6.7,7.5
				c4,0,6.7-3,6.7-7.5v-12h2.2V130.2z"/>
			<path fill="#71A4A1" d="M127.8,139.5l-6.2-5.5c-0.3,0-0.5,0-0.8,0h-6.4v5.5h-2.2v-21.3h8.6c5.3,0,8.9,3.1,8.9,7.9
				c0,3.7-2.1,6.4-5.5,7.4l6.6,6H127.8z M120.9,132c4,0,6.7-2.4,6.7-5.9c0-3.5-2.7-5.9-6.7-5.9h-6.4V132H120.9z"/>
			<path fill="#71A4A1" d="M151.2,139.5h-15.2v-21.3h15.2v2h-13v7.6h12.5v2h-12.5v7.6h13V139.5z"/>
		</g>
	</g>
	<g>
		<g>
			<path fill="#71A4A1" d="M11.4,170H9.9L0,148.7h2.4l8.2,17.7l8.2-17.7h2.4L11.4,170z"/>
			<path fill="#71A4A1" d="M43.6,160.7c0,5.8-3.6,9.7-8.9,9.7c-5.3,0-8.9-3.9-8.9-9.7v-12H28v12c0,4.6,2.7,7.5,6.7,7.5
				c4,0,6.7-3,6.7-7.5v-12h2.2V160.7z"/>
			<path fill="#71A4A1" d="M64.4,170H50.4v-21.3h2.2V168h11.7V170z"/>
			<path fill="#71A4A1" d="M74.4,150.7V170h-2.2v-19.3H65v-2h16.6v2H74.4z"/>
			<path fill="#71A4A1" d="M104.3,160.7c0,5.8-3.6,9.7-8.9,9.7c-5.3,0-8.9-3.9-8.9-9.7v-12h2.2v12c0,4.6,2.7,7.5,6.7,7.5
				c4,0,6.7-3,6.7-7.5v-12h2.2V160.7z"/>
			<path fill="#71A4A1" d="M126.7,170l-6.2-5.5c-0.3,0-0.5,0-0.8,0h-6.4v5.5h-2.2v-21.3h8.6c5.3,0,8.9,3.1,8.9,7.9
				c0,3.7-2.1,6.4-5.5,7.4l6.6,6H126.7z M119.8,162.5c4,0,6.7-2.4,6.7-5.9c0-3.5-2.7-5.9-6.7-5.9h-6.4v11.8H119.8z"/>
			<path fill="#71A4A1" d="M150.1,170h-15.2v-21.3H150v2h-13v7.6h12.5v2h-12.5v7.6h13V170z"/>
		</g>
	</g>
	<g>
		<defs>
			<circle id="SVGID_1_" cx="76.7" cy="53.4" r="53.4"/>
		</defs>
		<clipPath id="SVGID_2_">
			<use xlink:href="#SVGID_1_"  overflow="visible"/>
		</clipPath>
		<g clip-path="url(#SVGID_2_)">
			<path fill="#080808" d="M31.6,130.3c-44.6,0-89.1,0-133.6,0c-1.1,0-1.4-0.3-1.4-1.4c0-59.1,0-118.2,0-177.3
				c0-1.1,0.3-1.4,1.4-1.4c89.1,0,178.2,0,267.3,0c1.1,0,1.4,0.3,1.4,1.4c0,59.1,0,118.2,0,177.3c0,1.1-0.3,1.4-1.4,1.4
				C120.7,130.3,76.1,130.3,31.6,130.3z M96.1,7.3C96,7.1,95.9,7,95.7,7.1C95.3,7,95,6.9,94.6,6.7c-0.2-0.2-0.4-0.3-0.7-0.2
				c-0.3-0.1-0.6-0.1-0.9-0.2c-1.8-0.9-3.7-1.3-5.6-1.5c-2.8-0.6-5.7-0.9-8.6-0.8C70.9,4.3,63.3,5.4,56,8.7
				c-5.2,2.4-9.7,5.5-13.8,9.2c-4.8,4.2-8.1,9.4-10.9,15.1c-1.8,3.6-3.3,7.4-3.9,11.4c-1.2,6.9-0.9,13.7,0.8,20.6
				c1.9,7.5,5.2,14.2,10.3,19.9c0.1,0.2,0.2,0.5,0.3,0.6c7.2,7.3,15.2,13.2,25.7,14.7c2.8,0.4,5.6,0.9,8.4,1.4
				c0.4,0.1,0.9,0.3,1-0.2c0.2-0.6-0.5-0.5-0.8-0.7c-2.6-1.5-5.2-2.6-8.2-2.9c-0.5,0-1.2-0.1-1.4-0.6C63,96,62,96.1,61,96.2
				c-0.7,0.1-1.4,0.1-1.5-0.8c-0.2-0.9,0.5-1.1,1.2-1.2c3.9-1,7.7-1.1,11.7,0.1c3.4,1,6.9,2.2,10.6,0.8c0.1,0,0.3-0.1,0.4,0
				c1.2,0.6,2.7,0.3,3.9,0.7c2.4,0.8,4.9,1.3,7.2,2.3c0.5,0.2,1.4,0.9,1.8-0.4l0.1,0l0-0.1c-0.8-1.1-0.6-2.3-0.5-3.5
				c0.2-2.2,0.1-4.2-2.7-4.9c-0.4-0.1-0.8-0.6-1.2-0.9c-1.8-1.4-1.9-2.5-0.1-3.9c0.5-0.4,1.2-1.2,0.6-1.5c-0.7-0.3-1.3-1.9-2.5-0.8
				c-0.3,0.3-0.6,0.9-1,0.5c-0.4-0.4,0-0.9,0.2-1.4c0.2-0.5,0.6-0.8,1.1-1c0.8-0.4,0.9-0.9,0.2-1.4c-0.8-0.6-1.1-1.3-1.3-2.3
				c-0.1-0.7-0.3-1.3-0.9-1.7c-0.4-0.3-0.7-0.7-0.8-1.2c-0.1-1.2-0.6-2.2-1-3.3c-0.4-1.1-0.9-2.2-1.1-3.4c-0.5-2.6-1.2-5.2-1.7-7.8
				c-0.6-0.6-0.4-1.6-0.8-2.3c0-1.5-1.2-2.6-1.6-3.9c-0.3-1.2-0.9-1-1.6-0.4c0-1-0.5-1.8-0.6-2.7c-0.3-1.8-0.7-3.6-1-5.4
				c-0.1-0.5-0.2-0.8-1-0.6c-1.6,0.3-2.7,1.5-4,2.2c-1.4,0.7-1.9,3.4-1.2,4.8c0.3,0.6-0.2,0.6-0.5,0.7c-1.4,0.4-2.6-0.2-3.9-0.7
				c-1.4-1-2.4-2.2-2.6-4c0.3-1.3-0.1-2.5-0.5-3.7c-0.7-1.5-1-3.2-1-4.8c0-1.6-0.1-3.1,0.7-4.7c1.1-2.1,2.8-3.7,4.5-5.2
				c2.9-1.3,6-1.3,9.1-0.8c1.2,0.2,1.6-0.1,2-1.2c0.9-3.2,1.4-6.4,3.8-9.1c2.4-2.6,5.2-3.7,8.6-2.8c1.3,0.4,2.6,0.9,3.8,1.6
				c1.3,0.7,2.5,1.8,4.2,0.9c0.6-0.3,1-1,1.6-0.9c2,0.3,3.1-1.8,5-1.8c0.6-0.1,1,0.2,1.4,0.6c0.3,0.2,0.8,0.2,1.1-0.2
				c0.2-0.3-0.2-0.5-0.4-0.7c-3.3-2.3-6.6-4.5-10.4-6c-0.4-0.2-0.7-0.3-1.1-0.5c0-0.2-0.2-0.2-0.3-0.2C96.6,7.5,96.4,7.4,96.1,7.3z"
				/>
			<path fill="#71A4A1" d="M83.5,59.4c0.6,2.6,1.2,5.2,1.7,7.8c0.2,1.2,0.7,2.2,1.1,3.4c0.4,1.1,0.9,2.1,1,3.3
				c0,0.5,0.3,0.9,0.8,1.2c0.6,0.4,0.8,1,0.9,1.7c0.1,0.9,0.4,1.7,1.3,2.3c0.8,0.5,0.7,1-0.2,1.4c-0.5,0.2-0.8,0.6-1.1,1
				c-0.2,0.4-0.6,1-0.2,1.4c0.4,0.4,0.8-0.3,1-0.5c1.2-1.1,1.8,0.4,2.5,0.8c0.6,0.3-0.1,1-0.6,1.5c-1.8,1.5-1.8,2.5,0.1,3.9
				c0.4,0.3,0.7,0.8,1.2,0.9c2.7,0.6,2.8,2.7,2.7,4.9c-0.1,1.2-0.3,2.4,0.5,3.5l0,0c-0.3,1.3-1.2,0.6-1.8,0.4
				c-2.4-1-4.8-1.5-7.2-2.3c-1.3-0.4-2.7-0.1-3.9-0.7c-0.1-0.1-0.3-0.1-0.4,0c-3.6,1.4-7.1,0.2-10.6-0.8c-3.9-1.2-7.8-1.1-11.7-0.1
				c-0.7,0.2-1.3,0.4-1.2,1.2c0.2,0.8,0.9,0.9,1.5,0.8c1-0.2,2-0.3,2.5,1c0.2,0.6,1,0.6,1.4,0.6c3,0.3,5.7,1.4,8.2,2.9
				c0.3,0.2,0.9,0.1,0.8,0.7c-0.2,0.5-0.7,0.3-1,0.2c-2.8-0.5-5.6-1-8.4-1.4C54,98.8,45.9,92.9,38.8,85.6c-0.2-0.2-0.2-0.4-0.3-0.6
				c1.4-0.7,0.3-1.5,0-2.2c-1.3-3.2-3.3-6.1-5.1-9.1c-0.7-1.3-1.2-2.6-1-4.1c0.1-1.2-0.1-2.4-0.8-3.4c-0.4-0.7-0.6-1.4-0.1-2.1
				c0.6-0.9,0.6-1.9,0.1-2.8c-0.4-0.9-0.4-1.7,0.1-2.5c0.5-0.9,0.4-1.8-0.2-2.7c-0.5-0.6-0.5-1.4-0.6-2.2c0-1.1,0.9-1.9,0.7-3.2
				c-0.6-2.9-0.5-5.9,0.6-8.8c0.2-0.5,0.3-0.9,0.9-0.8c0.5,0.1,1.1,0.1,1,1c-0.1,0.7,0.4,1.3,0.7,1.9c1,2,0.8,2.5-1.1,3.3
				c0,0,0,0,0,0c0.7,1.1,0,2.5,0.8,3.6c0.5,0.6,0.7,1.3,0.2,2.1c-0.2,0.3-0.3,0.8,0,1.1c0.5,0.4,0.6-0.3,0.8-0.5
				c0.4-0.3,0.8-0.5,1.2-0.1c0.5,0.5,0,0.8-0.4,1c-0.2,0.1-0.5,0.3-0.6,0.4c-0.7,1.7-1.6,3.4-2.1,5.1c-1,3.2,1.3,5.9,2.1,9.1
				c0.9-2.2,0.9-3,0-4.5c-0.2-0.4-0.4-0.9-0.2-1.3c0.9-1.6,2-3.1,3.4-4.4c0.7-0.6,1.9-1.1,1.2-2.5c-0.3-0.5,0-0.9,0.6-0.9
				c0.3,0,0.8,0.1,0.8-0.4c0-0.6-0.5-0.6-1-0.6l0,0c0.2-1.1,0.8-1.6,1.9-1.3c0.3,0.1,0.6,0.1,0.9,0.1c0.9,0,1.5-0.5,1.7-1.4
				c0.2-0.9-0.6-1-1.2-1.2c-1.4-0.5-2-1.6-1.7-3.1c0.1-0.6,0.3-1.3,0.3-1.9c0-1.5-0.8-1.9-2.1-1.2c-0.3,0.2-0.6,0.6-1,0.3
				c-0.5-1.4,0.3-2.6,0.3-3.8c0-0.9,0-1.5,0.9-1.8c0.9-0.3,0.5-1.2,0.5-1.8c0-0.3-0.2-0.6-0.6-0.5c-1,0.5-0.8-0.2-0.7-0.8
				c0.2-1,0.2-2,1.6-2c0.5,0,0.5-0.8,1-1c0.3,0.3,0.2,0.9,0.8,1c1.5,0.1,1.4,0.8,0.7,1.8c-0.4,0.5-0.7,1.1,0.1,1.5
				c0.7,0.4,1.4,0.5,1.9-0.4c0.2-0.3,0.3-0.6,0.4-1c0.6-1.2,1.8-1.7,3.1-1.1c0.4,0.2,0.7,0.1,1.1,0c1.5-0.4,2.7-1.4,4-2.2
				c0.9-0.6,0.7-1.7-0.3-2.3c-0.3-0.2-0.6-0.5-0.9-0.8c0,0,0,0,0.1-0.1c0,0,0,0.1-0.1,0.1c-0.5,0-1.2,0.4-1.4-0.3
				c-0.2-0.7,0.5-0.8,1-0.9c0.8-0.1,1.1-0.6,1.1-1.4c0-0.6,0.1-1.2,1-1.2c2.2-0.1,4.2-0.3,4.8-3c0-0.2,0.2-0.3,0.3-0.5
				c0.4-0.6,0.8-0.8,1.2,0c0.3,0.7,1,1,1.6,1.3c0.5,0.2,1.5,0.5,0.9-0.8c-0.3-0.7,0.2-1.1,0.7-1c1.7,0.1,3.6-0.1,4.7,1.7
				c0.1,0.1,0.2,0.2,0.3,0.3c0,0.8,0.4,1.9,0,2.2c-0.9,0.8-0.8,1.8-1,2.8c-1.8,1.5-3.4,3.1-4.5,5.2c-0.8,1.5-0.8,3.1-0.7,4.7
				c0,1.6,0.3,3.3,1,4.8c-0.3,0.2-0.6,0.4-0.8,0.7c-0.4,0.4-0.5,2.2-0.2,2.2c0.7,0,0.9,0.7,1.5,0.9c0.2,1.8,1.2,3,2.6,4
				c-0.4,0.4-1,0.7-0.9,1.3c0.1,0.7,1,0.4,1.5,0.8c0.1,0.1,0.3-0.1,0.4,0c0.7,0.1,0.9,0.5,0.5,1.1c-0.2,0.3-0.6,0.4-0.5,0.9
				c0.5,0,1,0.4,1.5,0.8c0.1-0.5,0.1-0.8,0.1-1.1c0.2-1.7,0.6-1.9,2.1-1.3c0.8,0.3,1.5,0.8,2.1,1.4c0.4,0.3,0.7,0.8,0.5,1.2
				c-0.8,1.3,0.2,2.9-0.6,4.2c-0.2,0.3-0.1,0.6,0.2,0.8c0.2,0.2,0.5,0.1,0.6-0.2c0.8-1.4,1.2-0.5,1.5,0.3c0.2,0.4,0.2,0.9,0.3,1.3
				c0.2,0.6,0.4,1.2,1,1.3c0.8,0.2,0.9-0.6,1.2-1.1c0.1-0.2,0.2-0.5,0.3-0.7c0.9-1.6,0.9-1.7-0.8-2.1c-0.4-0.1-0.7-0.2-0.6-0.7
				c1.2,0.2,2.6-0.5,3.7,0.5c0,0,0.1,0,0.1,0l0-0.1C82.2,58.9,82.9,59.4,83.5,59.4z M54.7,54.7c-0.1-0.1,0-0.3-0.2-0.2
				C54.5,54.6,54.6,54.6,54.7,54.7c-0.1,0-0.3,0.1-0.4,0.2c-0.5,0.2-1.5,0.2-1.1,1c0.4,0.8,0.5,2,1.7,2.3c0.2,0.1,0.5,0,0.7-0.2
				c0.7-0.7,0.3-1.7,0.4-2.6C55.9,54.7,55.2,54.7,54.7,54.7z M43.7,80c-1.3-0.8-2.5-1-3-2c-0.7-1.3-1.6-2.3-2.8-3.2
				c-0.2-0.1-0.8-0.3-0.5-0.7c0.4-0.5,0.3-0.7-0.1-0.9c-0.1-0.1-0.4,0-0.6,0.1c-0.5,0.3-0.2,0.7-0.1,1.1c0.3,1.3,0.8,2.5,1.7,3.5
				c0.3,0.4,0.4,0.7,0.3,1.2c-0.2,1.6,1.9,0.8,2.2,2c0.1,0.2,0.4,0.4,0.8,0.3c0.1,0,0.2-0.1,0.2-0.2C41.7,79.9,42.5,79.8,43.7,80z
				 M66.9,71.2c-0.7,0.1-1.3,0.2-1.5,1c-0.1,0.5,1.6,2.4,2.1,2.3c0.8-0.2,0.7-1.1,0.8-1.7C68.5,71.7,67.7,71.4,66.9,71.2z
				 M60.6,48.1c0-0.3,0.2-0.9-0.3-0.8c-0.6,0.1-1.3,0.3-1.4,1.1c0,0.6,0.1,1.3,0.7,1.3C60.5,49.7,60.3,48.7,60.6,48.1z M82.6,66.9
				c-0.5,0-0.7,0.3-0.8,0.7c-0.1,0.2,0,0.6,0.3,0.6c0.5,0,0.8-0.3,0.9-0.8C83,67.1,82.8,66.9,82.6,66.9z M57.9,42.9
				c-0.5,0-0.6,0.4-0.5,0.7c0,0.3-0.1,0.8,0.4,0.8c0.4,0,0.6-0.3,0.6-0.7C58.5,43.3,58.4,43,57.9,42.9z M92.7,94.9
				c0.2-0.1,0.6-0.3,0.6-0.7c0-0.2-0.3-0.3-0.5-0.2c-0.4,0-0.7,0.2-0.6,0.7C92.2,94.9,92.4,94.9,92.7,94.9z"/>
			<path fill="#71A4A1" d="M69.3,23.4c-1.1-1.8-3-1.5-4.7-1.7c-0.5,0-1,0.4-0.7,1c0.6,1.3-0.5,1-0.9,0.8c-0.6-0.3-1.3-0.5-1.6-1.3
				c-0.3-0.9-0.7-0.6-1.2,0c-0.1,0.2-0.3,0.3-0.3,0.5c-0.6,2.7-2.6,2.9-4.8,3c-0.9,0-0.9,0.6-1,1.2c-0.1,0.7-0.3,1.2-1.1,1.4
				c-0.5,0.1-1.1,0.2-1,0.9c0.2,0.8,0.9,0.4,1.4,0.3l0,0c0.3,0.3,0.5,0.6,0.9,0.8c1,0.5,1.2,1.7,0.3,2.3c-1.3,0.8-2.5,1.8-4,2.2
				c-0.4,0.1-0.7,0.2-1.1,0c-1.3-0.5-2.5-0.1-3.1,1.1c-0.2,0.3-0.3,0.6-0.4,1c-0.5,0.9-1.2,0.8-1.9,0.4c-0.7-0.4-0.5-1-0.1-1.5
				c0.8-1,0.8-1.7-0.7-1.8c-0.6,0-0.5-0.7-0.8-1c-0.5,0.3-0.5,1-1,1c-1.5,0-1.5,1.1-1.6,2c-0.1,0.6-0.3,1.2,0.7,0.8
				c0.4-0.2,0.6,0.1,0.6,0.5c0,0.7,0.3,1.5-0.5,1.8c-1,0.4-0.9,0.9-0.9,1.8c0,1.2-0.8,2.5-0.3,3.8c0.4,0.3,0.7-0.2,1-0.3
				c1.3-0.7,2.1-0.3,2.1,1.2c0,0.6-0.2,1.3-0.3,1.9c-0.3,1.4,0.3,2.6,1.7,3.1c0.6,0.2,1.4,0.3,1.2,1.2c-0.2,0.9-0.8,1.4-1.7,1.4
				c-0.3,0-0.6,0-0.9-0.1c-1.1-0.3-1.7,0.3-1.9,1.3l0,0c0.5,0,1,0,1,0.6c0,0.5-0.4,0.4-0.8,0.4c-0.6,0-0.9,0.4-0.6,0.9
				c0.7,1.4-0.5,1.9-1.2,2.5c-1.5,1.2-2.5,2.8-3.4,4.4c-0.2,0.4,0,0.9,0.2,1.3c0.9,1.5,0.9,2.3,0,4.5c-0.8-3.3-3.1-5.9-2.1-9.1
				c0.6-1.7,1.5-3.4,2.1-5.1c0.1-0.2,0.4-0.3,0.6-0.4c0.4-0.3,0.9-0.5,0.4-1c-0.4-0.4-0.8-0.2-1.2,0.1c-0.3,0.2-0.3,0.9-0.8,0.5
				c-0.4-0.3-0.2-0.8,0-1.1c0.5-0.8,0.3-1.4-0.2-2.1c-0.8-1.1-0.1-2.5-0.8-3.6l0,0c1.9-0.8,2.1-1.3,1.1-3.3
				c-0.3-0.6-0.8-1.2-0.7-1.9c0.1-0.9-0.5-0.8-1-1c-0.6-0.1-0.7,0.3-0.9,0.8c-1.2,2.9-1.2,5.9-0.6,8.8c0.2,1.3-0.7,2-0.7,3.2
				c0,0.8,0.1,1.5,0.6,2.2c0.6,0.9,0.7,1.8,0.2,2.7c-0.5,0.9-0.5,1.7-0.1,2.5c0.4,1,0.5,1.9-0.1,2.8c-0.5,0.7-0.3,1.4,0.1,2.1
				c0.6,1.1,0.9,2.2,0.8,3.4c-0.2,1.5,0.3,2.8,1,4.1c1.8,3,3.7,5.8,5.1,9.1c0.3,0.7,1.4,1.5,0,2.2C33.3,79.2,30,72.5,28.1,65
				c-1.7-6.9-1.9-13.7-0.8-20.6c0.7-4,2.2-7.8,3.9-11.4c2.8-5.6,6.1-10.9,10.9-15.1c4.2-3.7,8.7-6.8,13.8-9.2
				C63.3,5.4,70.9,4.3,78.8,4c2.9-0.1,5.8,0.2,8.6,0.8c1.8,0.6,3.7,1.2,5.6,1.5c0.3,0.1,0.6,0.1,0.9,0.2c0.1,0.3,0.4,0.3,0.7,0.2
				C95,6.9,95.3,7,95.7,7.1c0.1,0.2,0.2,0.2,0.4,0.1c0.3,0.1,0.5,0.2,0.8,0.4c0,0.2,0.2,0.2,0.3,0.2c0.4,0.2,0.7,0.3,1.1,0.5
				c0.4,0.6,0.9,1,1.5,1.4c2.5,1.3,5,2.6,6.8,4.9c-1.9,0-2.9,2.1-5,1.8c-0.6-0.1-1,0.6-1.6,0.9c-1.8,0.9-3-0.2-4.2-0.9
				c-1.2-0.7-2.5-1.2-3.8-1.6c-3.4-1-6.2,0.1-8.6,2.8c-2.4,2.6-2.9,5.9-3.8,9.1c-0.3,1.2-0.8,1.4-2,1.2c-3.1-0.5-6.1-0.5-9.1,0.8
				c0.2-0.9,0.1-2,1-2.8c0.4-0.3,0-1.5,0-2.2c0-0.1,0.1-0.2,0.1-0.2C69.5,23.4,69.4,23.4,69.3,23.4z M80.8,16.7
				c0-1.4-0.4-2.2-1.7-2.4c-0.4,0-0.8,0-0.9-0.4c-0.4-1.5-1.9-2.1-2.8-3.1c-0.3-0.4-0.8-0.5-1.4-0.5c-2.1,0.1-3.7,1.7-5.8,1.8
				c-0.1,0-0.4,0.2-0.4,0.4c-0.2,1.6-1.5,2.6-2.4,3.8c-0.6,0.8-0.7,1.7,0.3,2.3c1,0.6,2,0.8,2.7,1.9c1,1.4,3.5,2.1,5.5,0.4
				c0.4-0.3,1-0.6,1.1-0.1c0.2,0.8,0.6,0.7,1,0.5c0.6-0.3,1.6-0.3,1.6-1.3c0-1.4,1-1.9,2-2.2C80.6,17.6,80.7,17.1,80.8,16.7z
				 M56.8,19c0.9,0.3,1.3-0.3,1.8-0.7c0.7-0.7,1.4-1.5,2.1-2.3c0.7-0.7,0.7-1.5,0.3-2.3c-0.4-0.9-1-1.3-2-1.2c-0.3,0-0.8,0.2-1,0
				c-1.3-1.1-2.3-0.3-3.3,0.4c-1.3,0.9-2.6,1.9-3.5,3.3c-0.7,1.1-0.8,2-0.1,3c0.8,1.1,1.8,1.4,3.1,0.7C55.1,19.5,55.8,18.9,56.8,19z
				 M64.5,10.1c0.3,0,0.7,0,0.6-0.4c0-0.3,0-0.8-0.5-0.7c-0.3,0.1-0.7,0.1-0.7,0.6C63.9,10,64.2,10.1,64.5,10.1z M37.1,43.4
				c-0.2,0-0.5,0.4-0.7,0.8c-0.1,0.3,0.1,0.5,0.4,0.5c0.5-0.1,0.8-0.3,1-0.8C37.9,43.5,37.7,43.4,37.1,43.4z M38,42.6L38,42.6
				L38,42.6L38,42.6z"/>
			<path fill="#71A4A1" d="M81.6,59.8c-1.1-1-2.4-0.3-3.7-0.5c-0.1,0.5,0.3,0.6,0.6,0.7c1.7,0.4,1.7,0.5,0.8,2.1
				c-0.1,0.2-0.2,0.5-0.3,0.7c-0.3,0.5-0.4,1.3-1.2,1.1c-0.6-0.1-0.9-0.8-1-1.3c-0.1-0.4-0.2-0.9-0.3-1.3c-0.3-0.8-0.6-1.7-1.5-0.3
				c-0.2,0.3-0.4,0.3-0.6,0.2c-0.3-0.2-0.4-0.5-0.2-0.8c0.7-1.3-0.3-2.9,0.6-4.2c0.2-0.4-0.1-0.9-0.5-1.2c-0.7-0.5-1.3-1.1-2.1-1.4
				c-1.6-0.6-1.9-0.4-2.1,1.3c0,0.3-0.1,0.6-0.1,1.1c-0.5-0.4-1-0.8-1.5-0.8c-0.2-0.5,0.3-0.6,0.5-0.9c0.4-0.7,0.2-1-0.5-1.1
				c-0.1,0-0.4,0.1-0.4,0c-0.4-0.4-1.3-0.1-1.5-0.8c-0.1-0.6,0.5-0.9,0.9-1.3c1.3,0.5,2.5,1,3.9,0.7c0.4-0.1,0.9,0,0.5-0.7
				c-0.7-1.4-0.2-4,1.2-4.8c1.3-0.7,2.4-1.8,4-2.2c0.7-0.1,0.9,0.1,1,0.6c0.3,1.8,0.7,3.6,1,5.4c0.2,0.9,0.7,1.8,0.6,2.7
				c-0.1,0.9,1,1.3,0.9,2.3c-0.2,1.7,0.8,2.2,2.3,2c0.4,0.7,0.2,1.6,0.8,2.3C82.9,59.4,82.2,58.9,81.6,59.8L81.6,59.8z"/>
			<path fill="#71A4A1" d="M106.6,14.5c-1.8-2.3-4.3-3.6-6.8-4.9c-0.6-0.3-1.1-0.8-1.5-1.4c3.7,1.5,7.1,3.6,10.4,6
				c0.2,0.2,0.6,0.4,0.4,0.7c-0.2,0.4-0.8,0.4-1.1,0.2C107.6,14.7,107.2,14.4,106.6,14.5z"/>
			<path fill="#71A4A1" d="M82.8,57.2c-1.5,0.2-2.5-0.3-2.3-2c0.1-0.9-1-1.4-0.9-2.3c0.7-0.7,1.3-0.9,1.6,0.4
				C81.6,54.6,82.8,55.6,82.8,57.2z"/>
			<path fill="#71A4A1" d="M64.7,47.1c-0.5-0.2-0.8-0.9-1.5-0.9c-0.3,0-0.2-1.7,0.2-2.2c0.2-0.3,0.5-0.4,0.8-0.7
				C64.6,44.5,65,45.8,64.7,47.1z"/>
			<path fill="#71A4A1" d="M93,6.3c-1.9-0.3-3.8-0.8-5.6-1.5C89.4,5,91.2,5.4,93,6.3z"/>
			<path fill="#71A4A1" d="M97.2,7.8c-0.2,0.1-0.3,0.1-0.3-0.2C97.1,7.5,97.2,7.6,97.2,7.8z"/>
			<path fill="#71A4A1" d="M94.6,6.7c-0.3,0.1-0.5,0.1-0.7-0.2C94.2,6.4,94.4,6.5,94.6,6.7z"/>
			<path fill="#71A4A1" d="M96.1,7.3c-0.2,0.1-0.3,0.1-0.4-0.1C95.9,7,96,7.1,96.1,7.3z"/>
			<polygon fill="#71A4A1" points="96.3,97.8 96.3,97.8 96.2,97.8 			"/>
			<path fill="#71A4A1" d="M43.7,80c-1.2-0.1-2,0-2.2,1c0,0.1-0.1,0.2-0.2,0.2c-0.3,0.2-0.7,0-0.8-0.3c-0.3-1.2-2.4-0.4-2.2-2
				c0.1-0.5,0-0.8-0.3-1.2c-0.8-1-1.3-2.2-1.7-3.5c-0.1-0.4-0.3-0.8,0.1-1.1c0.2-0.1,0.4-0.1,0.6-0.1c0.4,0.2,0.5,0.5,0.1,0.9
				c-0.3,0.4,0.3,0.6,0.5,0.7c1.2,0.8,2.2,1.9,2.8,3.2C41.2,79,42.5,79.1,43.7,80z"/>
			<path fill="#71A4A1" d="M54.7,54.7c0.5,0,1.3,0,1.2,0.7c-0.1,0.9,0.4,1.8-0.4,2.6c-0.2,0.1-0.5,0.2-0.7,0.2
				c-1.1-0.3-1.3-1.4-1.7-2.3c-0.3-0.8,0.6-0.8,1.1-1C54.4,54.8,54.5,54.8,54.7,54.7L54.7,54.7z"/>
			<path fill="#71A4A1" d="M66.9,71.2c0.8,0.2,1.6,0.5,1.4,1.5c-0.1,0.6,0,1.5-0.8,1.7c-0.5,0.1-2.2-1.8-2.1-2.3
				C65.6,71.4,66.2,71.3,66.9,71.2z"/>
			<path fill="#71A4A1" d="M60.6,48.1c-0.2,0.6,0,1.5-1,1.5c-0.6,0-0.8-0.7-0.7-1.3c0.1-0.8,0.8-1,1.4-1.1
				C60.8,47.3,60.5,47.8,60.6,48.1z"/>
			<path fill="#71A4A1" d="M82.6,66.9c0.3,0,0.5,0.2,0.4,0.5c-0.1,0.5-0.5,0.8-0.9,0.8c-0.3,0-0.4-0.3-0.3-0.6
				C81.8,67.2,82.1,66.9,82.6,66.9z"/>
			<path fill="#71A4A1" d="M57.9,42.9c0.4,0.1,0.6,0.4,0.5,0.8c0,0.4-0.3,0.7-0.6,0.7c-0.5,0-0.4-0.5-0.4-0.8
				C57.3,43.2,57.5,42.9,57.9,42.9z"/>
			<path fill="#71A4A1" d="M92.7,94.9c-0.3,0-0.5,0-0.5-0.3c0-0.4,0.3-0.6,0.6-0.7c0.2,0,0.5,0,0.5,0.2
				C93.3,94.6,92.9,94.8,92.7,94.9z"/>
			<path fill="#71A4A1" d="M54.7,54.7c-0.1,0-0.1-0.1-0.2-0.1C54.7,54.4,54.6,54.6,54.7,54.7L54.7,54.7z"/>
			<path fill="#71A4A1" d="M53.5,29.5C53.5,29.5,53.5,29.4,53.5,29.5C53.5,29.4,53.5,29.5,53.5,29.5C53.4,29.5,53.5,29.5,53.5,29.5z
				"/>
			<polygon fill="#71A4A1" points="81.7,59.8 81.7,59.9 81.6,59.8 			"/>
			<path fill="#71A4A1" d="M33.7,47.2C33.7,47.2,33.6,47.2,33.7,47.2L33.7,47.2z"/>
			<path fill="#71A4A1" d="M80.8,16.7c0,0.4-0.2,0.9-1,1.1c-1,0.3-2,0.8-2,2.2c0,1-1,1-1.6,1.3c-0.5,0.2-0.9,0.3-1-0.5
				c-0.1-0.5-0.7-0.2-1.1,0.1c-2,1.6-4.5,1-5.5-0.4c-0.8-1.1-1.8-1.3-2.7-1.9c-1-0.6-0.9-1.5-0.3-2.3c0.9-1.2,2.2-2.1,2.4-3.8
				c0-0.2,0.3-0.4,0.4-0.4c2.1-0.1,3.7-1.7,5.8-1.8c0.5,0,1,0.1,1.4,0.5c0.9,1.1,2.4,1.6,2.8,3.1c0.1,0.4,0.5,0.4,0.9,0.4
				C80.3,14.5,80.8,15.3,80.8,16.7z"/>
			<path fill="#71A4A1" d="M56.8,19c-0.9-0.1-1.7,0.5-2.5,0.9c-1.3,0.7-2.3,0.3-3.1-0.7c-0.7-1-0.6-1.9,0.1-3
				c0.9-1.4,2.1-2.4,3.5-3.3c1-0.7,2-1.5,3.3-0.4c0.2,0.2,0.7,0,1,0c1-0.1,1.6,0.3,2,1.2c0.3,0.8,0.4,1.6-0.3,2.3
				c-0.7,0.7-1.4,1.6-2.1,2.3C58.1,18.7,57.6,19.3,56.8,19z"/>
			<path fill="#71A4A1" d="M64.5,10.1c-0.3,0-0.6-0.2-0.6-0.5c0-0.5,0.4-0.5,0.7-0.6c0.5-0.1,0.5,0.3,0.5,0.7
				C65.2,10.1,64.8,10.1,64.5,10.1z"/>
			<path fill="#71A4A1" d="M37.1,43.4c0.6,0,0.8,0.1,0.7,0.5c-0.1,0.5-0.5,0.7-1,0.8c-0.3,0.1-0.5-0.2-0.4-0.5
				C36.6,43.8,36.9,43.4,37.1,43.4z"/>
			<polygon fill="#71A4A1" points="38,42.6 38,42.5 38.1,42.6 			"/>
			<path fill="#71A4A1" d="M69.3,23.4c0.1,0,0.2,0,0.4,0c0,0.1-0.1,0.2-0.1,0.2C69.5,23.6,69.4,23.5,69.3,23.4z"/>
			<path fill="#71A4A1" d="M40.6,54.4L40.6,54.4L40.6,54.4z"/>
		</g>
	</g>
</g>
</svg>
