<?xml version="1.0" encoding="utf-8"?>
<!-- Generator: Adobe Illustrator 18.1.1, SVG Export Plug-In . SVG Version: 6.00 Build 0)  -->
<svg version="1.1" id="Layer_1" xmlns="http://www.w3.org/2000/svg" xmlns:xlink="http://www.w3.org/1999/xlink" x="0px" y="0px"
	 viewBox="0 0 134.9 35.4" enable-background="new 0 0 134.9 35.4" xml:space="preserve">
<g>
	<g>
		<g>
			<g>
				<g>
					<path fill="#574620" d="M66.5,28.2c-0.4,1.4-0.8,2.8-1.2,4.2c-0.2,0.7,0.9,1,1.1,0.3c0.4-1.4,0.8-2.8,1.2-4.2
						C67.7,27.8,66.7,27.5,66.5,28.2L66.5,28.2z"/>
				</g>
			</g>
			<g>
				<g>
					<path fill="#574620" d="M71.7,28.5c0.2,1.4,0.5,2.8,0.7,4.3c0.1,0.7,1.2,0.4,1.1-0.3c-0.2-1.4-0.5-2.8-0.7-4.3
						C72.6,27.5,71.6,27.8,71.7,28.5L71.7,28.5z"/>
				</g>
			</g>
			<g>
				<g>
					<path fill="#574620" d="M65.9,32.3c-1-0.3-2-0.5-3.1-0.8c-0.7-0.2-1.2-0.3-1.8,0c-0.4,0.2-0.3,0.9,0.1,1
						c1.3,0.2,2.9-0.3,4.1,0.5c-0.1-0.2-0.2-0.3-0.3-0.5c0-0.3,0.1-0.3-0.1-0.4c-0.1-0.1-0.5,0-0.6,0c-0.3,0-0.7,0.1-1,0.3
						c-0.6,0.3-1,0.8-1.1,1.4c-0.1,0.5,0.5,1,0.9,0.5c0.7-0.7,1.4-1.3,2.4-1.1c-0.1-0.2-0.3-0.5-0.4-0.7c-0.1,0.4-0.3,0.8-0.5,1.2
						c0.3,0.1,0.7,0.3,1,0.4c0-0.2,0-0.6,0.2-0.8c0.2-0.2,0.3-0.2,0.7-0.1c0.7,0.2,1-0.9,0.3-1.1c-0.5-0.1-1.1-0.4-1.6,0
						c-0.5,0.4-0.5,1.1-0.6,1.7c-0.1,0.6,0.7,1,1,0.4c0.2-0.5,0.4-0.9,0.6-1.4c0.1-0.3-0.1-0.6-0.4-0.7c-1.4-0.3-2.6,0.4-3.5,1.4
						c0.3,0.2,0.6,0.4,0.9,0.5c0.3-1.4,1.5-0.5,2.4-0.8c0.4-0.1,0.6-0.5,0.5-0.9c-0.2-0.6-1.1-0.7-1.6-0.8c-1-0.2-2,0-3-0.2
						c0,0.3,0.1,0.7,0.1,1c0.5-0.2,1.4,0.2,1.9,0.3c0.7,0.2,1.4,0.3,2.1,0.5C66.4,33.6,66.6,32.5,65.9,32.3L65.9,32.3z"/>
				</g>
			</g>
			<g>
				<g>
					<path fill="#574620" d="M73,32.4c-1.1,0-2.1,0-3.2,0c-0.7,0-1.2,0-1.8,0.5c-0.4,0.3-0.1,1,0.4,1c1.3-0.1,2.7-0.9,4.1-0.5
						c-0.1-0.1-0.3-0.3-0.4-0.4c0.1-0.4-0.1-0.5-0.4-0.4c-0.2,0-0.3,0-0.5,0.1c-0.3,0.1-0.6,0.2-0.8,0.4c-0.6,0.4-0.8,1-0.8,1.8
						c0,0.5,0.8,0.8,1,0.3c0.5-0.8,1.1-1.6,2.1-1.6c-0.2-0.2-0.4-0.4-0.6-0.6c0,0.4-0.1,0.8-0.2,1.2c0.4,0,0.7,0.1,1.1,0.1
						c0-0.2-0.1-0.6,0-0.8c0.1-0.3,0.3-0.2,0.6-0.2c0.7,0,0.7-1.1,0-1.1c-1.7,0-1.8,0.6-1.7,2.2c0,0.6,1,0.8,1.1,0.1
						c0.1-0.5,0.2-1,0.2-1.5c0-0.3-0.3-0.6-0.6-0.6c-1.5,0-2.4,1-3.1,2.2c0.3,0.1,0.7,0.2,1,0.3c0-1.6,1.5-0.8,2.2-1.4
						c0.3-0.2,0.3-0.7,0.1-1c-0.3-0.4-1.2-0.3-1.7-0.3c-1,0-1.9,0.5-3,0.6c0.1,0.3,0.3,0.6,0.4,1c0.4-0.3,1.5-0.1,2-0.1
						c0.7,0,1.4,0,2.2,0C73.7,33.5,73.7,32.4,73,32.4L73,32.4z"/>
				</g>
			</g>
		</g>
		<path fill="#E2A127" d="M69,9c-0.3-2.5-1.5-5.5-3-1.8s-5.7,13.4-6.3,15.2c-0.7,1.9,0.5,1.5,1.5-0.5c1-2,1.7-2.3,1.4,0.1
			c-0.3,2.4,0.6,1.5,1.3-0.5c0.7-2,1.7-2.2,1.4-0.5c-0.4,1.7,2.6,4.2,3.3-1.6s-1.4-7.5-0.6-8.5C68.7,10,69,9,69,9z"/>
		<path fill="#F3D8A7" d="M67.3,14.3c0.7,6.8-4.5,9.5-3,12.8c1.5,3.3,7,3.5,8.4,1.8c1.5-1.6,1.6-6.5-0.2-12.2
			c-1.8-5.7-1.5-7.5-2.8-7.3S66.9,10.2,67.3,14.3z"/>
		<path fill="#E2A127" d="M69.9,9.7c0.5-2.5,1.9-5.4,3.1-1.7c1.3,3.7,4.9,13.7,5.4,15.6s-0.6,1.4-1.4-0.6s-1.6-2.4-1.4,0
			s-0.7,1.5-1.2-0.6s-1.6-2.3-1.3-0.6c0.3,1.7-1.2,3.7-1.6-2.1s0.3-7.1-0.5-8.1C70.2,10.7,69.9,9.7,69.9,9.7z"/>
		<g>
			<g>
				<path fill="#BBB6A7" d="M70.9,10.7C71.4,10,71.4,10,71,9.4c-0.4-0.6-1.2-0.4-1.6-0.7c-0.7-0.5-0.3-1.5-1.6-0.7
					c-0.9,0.5-0.7,1.2-1,2c-0.2,0.6-0.6,0.8-0.8,1.5c-0.2,0.7,0.2,1.4,0.2,2c0,0.8-0.7,3.3,1.3,2.1c-0.4,0.9,0.9,0.9,1.4,0.7
					c0.6-0.3,1.2-1.3,1.5-1.8C71,13.5,73,11.8,70.9,10.7C70.9,10.6,71.5,11,70.9,10.7z M66.8,11.6c0-0.1,0.1-0.2,0.1-0.3
					C66.9,11.3,66.8,12,66.8,11.6C66.8,11.5,66.8,11.7,66.8,11.6z"/>
				<path fill="#BBB6A7" d="M71.7,12.6C71.7,12.6,71.8,12.3,71.7,12.6L71.7,12.6z"/>
			</g>
		</g>
		<g>
			<g>
				<path fill="#584621" d="M68.4,12.4c0.5,0,0.5-0.7,0-0.7C67.9,11.7,67.9,12.4,68.4,12.4L68.4,12.4z"/>
			</g>
		</g>
		<path fill="#574620" d="M69.4,10.9c0.1-0.4-0.1-0.8-0.5-0.9c-1.1-0.5-2.4,0.4-3.2,1.1c-0.2,0.2-0.5,0.4-0.7,0.7c0-0.1,0-0.1,0-0.2
			c0.2-0.8,0.5-1.6,0.6-2.4c0.1-0.4,0.2-0.9,0.2-1.3c0-0.4,0-0.8,0.1-1.2C66.2,5.9,66.3,5,66.2,4c0-0.4-0.3-0.8-0.7-0.7
			c-0.4,0-0.8,0.3-0.7,0.7c0,0.1,0,0.3,0,0.4c-0.1,0-0.3-0.1-0.4,0C64,4.5,63.7,5,63.8,5.3c0,0.1,0,0.2,0.1,0.3c0,0,0,0,0,0.1
			c0,0,0,0.1,0,0.1c0,0.2,0,0.5,0,0.7c0,0.3,0,0.5-0.1,0.8c0,0,0,0,0,0c0,0,0,0,0,0c0,0.1,0,0.1,0,0.2c0,0.1,0,0.3-0.1,0.4
			c-0.2,1.2-0.5,2.3-0.8,3.5c-0.3,1-0.5,2.1-0.5,3.1c0,0.4,0.1,0.8,0.3,1.1c0.3,0.4,0.8,0.5,1.2,0.4c0,0,0,0,0,0
			c0.1,0,0.3,0.1,0.5,0.1c0.7,0,1.1-0.6,1.5-1.1c0.4-0.4,0.7-0.9,1.1-1.4c0.1-0.2,0.3-0.3,0.4-0.5c0.2-0.2,0.4-0.4,0.6-0.5
			c0.1-0.1,0.1-0.1,0.2-0.2c0.2,0,0.3-0.1,0.5-0.1c0.4-0.1,0.6-0.5,0.5-0.9c0,0,0-0.1,0-0.1C69.3,11.2,69.3,11.1,69.4,10.9z"/>
		<g>
			<g>
				<path fill="#574620" d="M67.7,11.2c0,0.1,0,0.1,0,0.2c0,0.1,0,0.1,0,0c0.1-0.1,0.3-0.2,0.4-0.3C68,11.2,67.8,11.1,67.7,11.2
					c-0.3-0.1-0.5,0-0.8,0.1c0.2,0.4,0.5,0.8,0.7,1.2c0.2-0.3,0.8-1,1.2-0.9c-0.1-0.1-0.3-0.2-0.4-0.3c0,0,0,0,0,0.1
					c0-0.1-0.1-0.3-0.1-0.4c0,0.1,0,0.2,0.1,0c0.1-0.2,0.1-0.1-0.1-0.1c-0.2-0.1-0.5,0-0.7,0c-0.5,0.1-0.9,0.4-1.2,0.8
					c-0.2,0.3,0,0.8,0.3,1c0.4,0.2,0.8,0,1-0.3c0.1-0.1,0.4-0.1,0.6-0.1c0.3,0,0.6,0,0.8-0.1c0.6-0.2,0.9-0.9,0.8-1.5
					c-0.2-0.8-1.1-0.7-1.7-0.5c-0.6,0.2-1.1,0.7-1.6,1.2c-0.5,0.5,0,1.5,0.7,1.2c0.5-0.1,1.2,0,1.6-0.4c0.4-0.4,0.3-1,0.2-1.5
					C68.9,9.9,67.5,10.3,67.7,11.2L67.7,11.2z"/>
			</g>
		</g>
		<g>
			<ellipse transform="matrix(-0.7766 0.63 -0.63 -0.7766 119.7658 -34.9419)" fill="#F3D8A7" cx="66.1" cy="3.8" rx="2" ry="1.3"/>
			
				<ellipse transform="matrix(-0.7766 0.63 -0.63 -0.7766 115.8471 -27.5433)" fill="#F3D8A7" cx="62.8" cy="6.8" rx="4.7" ry="3.1"/>
			<g>
				<g>
					<path fill="#574620" d="M67.1,3.8c0.4-0.3,0.8-0.7,1.2-0.9c0.5-0.2,1-0.1,1.5,0c0.1,0,0.3-0.1,0.2-0.2c-0.6-0.1-1.1-0.2-1.7,0
						c-0.6,0.2-1.1,0.6-1.5,1C66.7,3.8,67,3.8,67.1,3.8L67.1,3.8z"/>
				</g>
			</g>
			<g>
				<g>
					<path fill="#574620" d="M66.3,3.1c0.4-0.4,0.8-0.9,0.9-1.4c0.2-0.5,0.1-1.1,0-1.6c0-0.1-0.3,0-0.3,0.1c0.1,0.5,0.2,1,0,1.5
						c-0.2,0.5-0.6,1-0.9,1.4C66,3.2,66.2,3.2,66.3,3.1L66.3,3.1z"/>
				</g>
			</g>
			<g>
				<g>
					<path fill="#574620" d="M67,3.1c0.5-0.3,1.1-0.6,1.4-1.1c0.3-0.4,0.4-1,0.5-1.5c0-0.1-0.3-0.1-0.3,0c-0.1,0.5-0.2,1-0.5,1.5
						c-0.3,0.4-0.8,0.7-1.3,1C66.6,3.1,66.9,3.2,67,3.1L67,3.1z"/>
				</g>
			</g>
			<path fill="#F16C24" d="M59.9,7.4c-2.7,0.9-4,4.7-1.6,7.5c1.1-4.7,2.3-4.8,3.2-5.3S61.4,6.9,59.9,7.4z"/>
			<path fill="#574620" d="M62.4,6.9c0.2-0.8,1.1-0.5,1.5-0.4c0.4,0.1,0,0.3,0,0.3s-0.2-0.2-0.7,0c-0.5,0.2,0,0.3-0.1,0.4
				C63.1,7.3,62.3,7.3,62.4,6.9z"/>
			<path fill="#574620" d="M60.3,6.4c0.2-0.7-0.7-1-1.1-1.1s-0.2,0.3-0.2,0.3s0.3-0.1,0.6,0.3c0.3,0.4-0.1,0.3-0.1,0.4
				C59.6,6.4,60.2,6.8,60.3,6.4z"/>
		</g>
	</g>
	<g>
		<g>
			<path fill="#584621" d="M7.1,24.3l0.8,0.2c-0.4,1.8-1.9,3-3.8,3c-2.3,0-4-1.8-4-4.1c0-2.3,1.8-4.1,4-4.1c1.9,0,3.4,1.2,3.8,2.9
				l-0.8,0.2C6.7,20.9,5.5,20,4,20c-1.8,0-3.2,1.5-3.2,3.3c0,1.9,1.4,3.3,3.2,3.3C5.5,26.6,6.7,25.7,7.1,24.3z"/>
			<path fill="#584621" d="M16.5,23.8c0,2.1-1.3,3.6-3.3,3.6c-2,0-3.3-1.4-3.3-3.6v-4.5h0.8v4.5c0,1.7,1,2.8,2.5,2.8
				c1.5,0,2.5-1.1,2.5-2.8v-4.5h0.8V23.8z"/>
			<path fill="#584621" d="M24.2,27.3h-5.2v-7.9h0.8v7.1h4.3V27.3z"/>
			<path fill="#584621" d="M28,20.1v7.2h-0.8v-7.2h-2.7v-0.7h6.1v0.7H28z"/>
			<path fill="#584621" d="M39.1,23.8c0,2.1-1.3,3.6-3.3,3.6c-2,0-3.3-1.4-3.3-3.6v-4.5h0.8v4.5c0,1.7,1,2.8,2.5,2.8
				c1.5,0,2.5-1.1,2.5-2.8v-4.5h0.8V23.8z"/>
			<path fill="#584621" d="M47.4,27.3l-2.3-2.1c-0.1,0-0.2,0-0.3,0h-2.4v2h-0.8v-7.9h3.2c2,0,3.3,1.2,3.3,2.9c0,1.4-0.8,2.4-2,2.8
				l2.4,2.2H47.4z M44.8,24.5c1.5,0,2.5-0.9,2.5-2.2c0-1.3-1-2.2-2.5-2.2h-2.4v4.4H44.8z"/>
			<path fill="#584621" d="M56,27.3h-5.6v-7.9H56v0.7h-4.8v2.8h4.7v0.7h-4.7v2.8H56V27.3z"/>
		</g>
	</g>
	<g>
		<g>
			<path fill="#584621" d="M83.4,27.1h-0.6l-3.7-7.9h0.9l3,6.6l3.1-6.6h0.9L83.4,27.1z"/>
			<path fill="#584621" d="M95.4,23.7c0,2.1-1.3,3.6-3.3,3.6c-2,0-3.3-1.4-3.3-3.6v-4.5h0.8v4.5c0,1.7,1,2.8,2.5,2.8
				c1.5,0,2.5-1.1,2.5-2.8v-4.5h0.8V23.7z"/>
			<path fill="#584621" d="M103.1,27.1h-5.2v-7.9h0.8v7.1h4.3V27.1z"/>
			<path fill="#584621" d="M106.8,20v7.2H106V20h-2.7v-0.7h6.1V20H106.8z"/>
			<path fill="#584621" d="M117.9,23.7c0,2.1-1.3,3.6-3.3,3.6c-2,0-3.3-1.4-3.3-3.6v-4.5h0.8v4.5c0,1.7,1,2.8,2.5,2.8
				c1.5,0,2.5-1.1,2.5-2.8v-4.5h0.8V23.7z"/>
			<path fill="#584621" d="M126.2,27.1l-2.3-2.1c-0.1,0-0.2,0-0.3,0h-2.4v2h-0.8v-7.9h3.2c2,0,3.3,1.2,3.3,2.9c0,1.4-0.8,2.4-2,2.8
				l2.4,2.2H126.2z M123.6,24.3c1.5,0,2.5-0.9,2.5-2.2c0-1.3-1-2.2-2.5-2.2h-2.4v4.4H123.6z"/>
			<path fill="#584621" d="M134.9,27.1h-5.6v-7.9h5.6V20H130v2.8h4.7v0.7H130v2.8h4.8V27.1z"/>
		</g>
	</g>
</g>
</svg>
