<?xml version="1.0" encoding="utf-8"?>
<!-- Generator: Adobe Illustrator 18.1.1, SVG Export Plug-In . SVG Version: 6.00 Build 0)  -->
<svg version="1.1" id="Layer_1" xmlns="http://www.w3.org/2000/svg" xmlns:xlink="http://www.w3.org/1999/xlink" x="0px" y="0px"
	 viewBox="0 0 166.9 35.4" enable-background="new 0 0 166.9 35.4" xml:space="preserve">
<g>
	<g>
		<g>
			<g>
				<path fill="#574620" d="M9.5,28.2c-0.4,1.4-0.8,2.8-1.2,4.2c-0.2,0.7,0.9,1,1.1,0.3c0.4-1.4,0.8-2.8,1.2-4.2
					C10.8,27.8,9.7,27.5,9.5,28.2L9.5,28.2z"/>
			</g>
		</g>
		<g>
			<g>
				<path fill="#574620" d="M14.7,28.5c0.2,1.4,0.5,2.8,0.7,4.3c0.1,0.7,1.2,0.4,1.1-0.3c-0.2-1.4-0.5-2.8-0.7-4.3
					C15.7,27.5,14.6,27.8,14.7,28.5L14.7,28.5z"/>
			</g>
		</g>
		<g>
			<g>
				<path fill="#574620" d="M9,32.3c-1-0.3-2-0.5-3.1-0.8c-0.7-0.2-1.2-0.3-1.8,0c-0.4,0.2-0.3,0.9,0.1,1c1.3,0.2,2.9-0.3,4.1,0.5
					C8.2,33,8.1,32.8,8,32.6c0-0.3,0.1-0.3-0.1-0.4c-0.1-0.1-0.5,0-0.6,0c-0.3,0-0.7,0.1-1,0.3c-0.6,0.3-1,0.8-1.1,1.4
					c-0.1,0.5,0.5,1,0.9,0.5c0.7-0.7,1.4-1.3,2.4-1.1c-0.1-0.2-0.3-0.5-0.4-0.7C8,33,7.8,33.4,7.7,33.8c0.3,0.1,0.7,0.3,1,0.4
					c0-0.2,0-0.6,0.2-0.8c0.2-0.2,0.3-0.2,0.7-0.1c0.7,0.2,1-0.9,0.3-1.1c-0.5-0.1-1.1-0.4-1.6,0c-0.5,0.4-0.5,1.1-0.6,1.7
					c-0.1,0.6,0.7,1,1,0.4c0.2-0.5,0.4-0.9,0.6-1.4c0.1-0.3-0.1-0.6-0.4-0.7c-1.4-0.3-2.6,0.4-3.5,1.4c0.3,0.2,0.6,0.4,0.9,0.5
					c0.3-1.4,1.5-0.5,2.4-0.8c0.4-0.1,0.6-0.5,0.5-0.9c-0.2-0.6-1.1-0.7-1.6-0.8c-1-0.2-2,0-3-0.2c0,0.3,0.1,0.7,0.1,1
					c0.5-0.2,1.4,0.2,1.9,0.3C7.3,33,8,33.2,8.7,33.4C9.4,33.6,9.7,32.5,9,32.3L9,32.3z"/>
			</g>
		</g>
		<g>
			<g>
				<path fill="#574620" d="M16,32.4c-1.1,0-2.1,0-3.2,0c-0.7,0-1.2,0-1.8,0.5c-0.4,0.3-0.1,1,0.4,1c1.3-0.1,2.7-0.9,4.1-0.5
					c-0.1-0.1-0.3-0.3-0.4-0.4c0.1-0.4-0.1-0.5-0.4-0.4c-0.2,0-0.3,0-0.5,0.1c-0.3,0.1-0.6,0.2-0.8,0.4c-0.6,0.4-0.8,1-0.8,1.8
					c0,0.5,0.8,0.8,1,0.3c0.5-0.8,1.1-1.6,2.1-1.6c-0.2-0.2-0.4-0.4-0.6-0.6c0,0.4-0.1,0.8-0.2,1.2c0.4,0,0.7,0.1,1.1,0.1
					c0-0.2-0.1-0.6,0-0.8c0.1-0.3,0.3-0.2,0.6-0.2c0.7,0,0.7-1.1,0-1.1c-1.7,0-1.8,0.6-1.7,2.2c0,0.6,1,0.8,1.1,0.1
					c0.1-0.5,0.2-1,0.2-1.5c0-0.3-0.3-0.6-0.6-0.6c-1.5,0-2.4,1-3.1,2.2c0.3,0.1,0.7,0.2,1,0.3c0-1.6,1.5-0.8,2.2-1.4
					c0.3-0.2,0.3-0.7,0.1-1c-0.3-0.4-1.2-0.3-1.7-0.3c-1,0-1.9,0.5-3,0.6c0.1,0.3,0.3,0.6,0.4,1c0.4-0.3,1.5-0.1,2-0.1
					c0.7,0,1.4,0,2.2,0C16.7,33.5,16.7,32.4,16,32.4L16,32.4z"/>
			</g>
		</g>
	</g>
	<path fill="#E2A127" d="M12,9c-0.3-2.5-1.5-5.5-3-1.8S3.4,20.6,2.7,22.4c-0.7,1.9,0.5,1.5,1.5-0.5s1.7-2.3,1.4,0.1
		c-0.3,2.4,0.6,1.5,1.3-0.5s1.7-2.2,1.4-0.5c-0.4,1.7,2.6,4.2,3.3-1.6s-1.4-7.5-0.6-8.5C11.7,10,12,9,12,9z"/>
	<path fill="#F3D8A7" d="M10.3,14.3c0.7,6.8-4.5,9.5-3,12.8s7,3.5,8.4,1.8c1.5-1.6,1.6-6.5-0.2-12.2S14,9.3,12.7,9.5
		S9.9,10.2,10.3,14.3z"/>
	<path fill="#E2A127" d="M12.9,9.7c0.5-2.5,1.9-5.4,3.1-1.7c1.3,3.7,4.9,13.7,5.4,15.6c0.6,1.9-0.6,1.4-1.4-0.6
		c-0.9-2-1.6-2.4-1.4,0c0.2,2.4-0.7,1.5-1.2-0.6c-0.6-2-1.6-2.3-1.3-0.6c0.3,1.7-1.2,3.7-1.6-2.1s0.3-7.1-0.5-8.1S12.9,9.7,12.9,9.7
		z"/>
	<g>
		<g>
			<path fill="#BBB6A7" d="M13.9,10.7C14.4,10,14.4,10,14,9.4c-0.4-0.6-1.2-0.4-1.6-0.7c-0.7-0.5-0.3-1.5-1.6-0.7
				c-0.9,0.5-0.7,1.2-1,2c-0.2,0.6-0.6,0.8-0.8,1.5c-0.2,0.7,0.2,1.4,0.2,2c0,0.8-0.7,3.3,1.3,2.1c-0.4,0.9,0.9,0.9,1.4,0.7
				c0.6-0.3,1.2-1.3,1.5-1.8C14.1,13.5,16,11.8,13.9,10.7C14,10.6,14.5,11,13.9,10.7z M9.8,11.6c0-0.1,0.1-0.2,0.1-0.3
				C9.9,11.3,9.8,12,9.8,11.6C9.8,11.5,9.8,11.7,9.8,11.6z"/>
			<path fill="#BBB6A7" d="M14.8,12.6C14.8,12.6,14.8,12.3,14.8,12.6L14.8,12.6z"/>
		</g>
	</g>
	<g>
		<g>
			<path fill="#584621" d="M11.4,12.4c0.5,0,0.5-0.7,0-0.7C10.9,11.7,10.9,12.4,11.4,12.4L11.4,12.4z"/>
		</g>
	</g>
	<path fill="#574620" d="M12.4,10.9c0.1-0.4-0.1-0.8-0.5-0.9c-1.1-0.5-2.4,0.4-3.2,1.1c-0.2,0.2-0.5,0.4-0.7,0.7c0-0.1,0-0.1,0-0.2
		c0.2-0.8,0.5-1.6,0.6-2.4C8.8,8.9,8.8,8.4,8.9,8c0-0.4,0-0.8,0.1-1.2C9.2,5.9,9.3,5,9.2,4c0-0.4-0.3-0.8-0.7-0.7
		C8.1,3.3,7.7,3.6,7.8,4c0,0.1,0,0.3,0,0.4c-0.1,0-0.3-0.1-0.4,0C7,4.5,6.7,5,6.8,5.3c0,0.1,0,0.2,0.1,0.3c0,0,0,0,0,0.1
		c0,0,0,0.1,0,0.1c0,0.2,0,0.5,0,0.7c0,0.3,0,0.5-0.1,0.8c0,0,0,0,0,0c0,0,0,0,0,0c0,0.1,0,0.1,0,0.2c0,0.1,0,0.3-0.1,0.4
		c-0.2,1.2-0.5,2.3-0.8,3.5c-0.3,1-0.5,2.1-0.5,3.1c0,0.4,0.1,0.8,0.3,1.1C6,16,6.5,16.2,6.9,16c0,0,0,0,0,0c0.1,0,0.3,0.1,0.5,0.1
		c0.7,0,1.1-0.6,1.5-1.1c0.4-0.4,0.7-0.9,1.1-1.4c0.1-0.2,0.3-0.3,0.4-0.5c0.2-0.2,0.4-0.4,0.6-0.5c0.1-0.1,0.1-0.1,0.2-0.2
		c0.2,0,0.3-0.1,0.5-0.1c0.4-0.1,0.6-0.5,0.5-0.9c0,0,0-0.1,0-0.1C12.3,11.2,12.3,11.1,12.4,10.9z"/>
	<g>
		<g>
			<path fill="#574620" d="M10.7,11.2c0,0.1,0,0.1,0,0.2c0,0.1,0,0.1,0,0c0.1-0.1,0.3-0.2,0.4-0.3C11.1,11.2,10.8,11.1,10.7,11.2
				c-0.3-0.1-0.5,0-0.8,0.1c0.2,0.4,0.5,0.8,0.7,1.2c0.2-0.3,0.8-1,1.2-0.9c-0.1-0.1-0.3-0.2-0.4-0.3c0,0,0,0,0,0.1
				c0-0.1-0.1-0.3-0.1-0.4c0,0.1,0,0.2,0.1,0c0.1-0.2,0.1-0.1-0.1-0.1c-0.2-0.1-0.5,0-0.7,0c-0.5,0.1-0.9,0.4-1.2,0.8
				c-0.2,0.3,0,0.8,0.3,1c0.4,0.2,0.8,0,1-0.3c0.1-0.1,0.4-0.1,0.6-0.1c0.3,0,0.6,0,0.8-0.1c0.6-0.2,0.9-0.9,0.8-1.5
				c-0.2-0.8-1.1-0.7-1.7-0.5c-0.6,0.2-1.1,0.7-1.6,1.2c-0.5,0.5,0,1.5,0.7,1.2c0.5-0.1,1.2,0,1.6-0.4c0.4-0.4,0.3-1,0.2-1.5
				C12,9.9,10.5,10.3,10.7,11.2L10.7,11.2z"/>
		</g>
	</g>
	<g>
		<ellipse transform="matrix(-0.7766 0.63 -0.63 -0.7766 18.514 0.9612)" fill="#F3D8A7" cx="9.1" cy="3.8" rx="2" ry="1.3"/>
		<ellipse transform="matrix(-0.7766 0.63 -0.63 -0.7766 14.5953 8.3598)" fill="#F3D8A7" cx="5.8" cy="6.8" rx="4.7" ry="3.1"/>
		<g>
			<g>
				<path fill="#574620" d="M10.1,3.8c0.4-0.3,0.8-0.7,1.2-0.9c0.5-0.2,1-0.1,1.5,0c0.1,0,0.3-0.1,0.2-0.2c-0.6-0.1-1.1-0.2-1.7,0
					c-0.6,0.2-1.1,0.6-1.5,1C9.8,3.8,10,3.8,10.1,3.8L10.1,3.8z"/>
			</g>
		</g>
		<g>
			<g>
				<path fill="#574620" d="M9.3,3.1c0.4-0.4,0.8-0.9,0.9-1.4c0.2-0.5,0.1-1.1,0-1.6c0-0.1-0.3,0-0.3,0.1c0.1,0.5,0.2,1,0,1.5
					C9.8,2.2,9.4,2.6,9.1,3C9,3.2,9.2,3.2,9.3,3.1L9.3,3.1z"/>
			</g>
		</g>
		<g>
			<g>
				<path fill="#574620" d="M10,3.1c0.5-0.3,1.1-0.6,1.4-1.1c0.3-0.4,0.4-1,0.5-1.5c0-0.1-0.3-0.1-0.3,0c-0.1,0.5-0.2,1-0.5,1.5
					c-0.3,0.4-0.8,0.7-1.3,1C9.6,3.1,9.9,3.2,10,3.1L10,3.1z"/>
			</g>
		</g>
		<path fill="#F16C24" d="M2.9,7.4c-2.7,0.9-4,4.7-1.6,7.5c1.1-4.7,2.3-4.8,3.2-5.3S4.4,6.9,2.9,7.4z"/>
		<path fill="#574620" d="M5.4,6.9c0.2-0.8,1.1-0.5,1.5-0.4c0.4,0.1,0,0.3,0,0.3s-0.2-0.2-0.7,0s0,0.3-0.1,0.4
			C6.1,7.3,5.3,7.3,5.4,6.9z"/>
		<path fill="#574620" d="M3.3,6.4c0.2-0.7-0.7-1-1.1-1.1S2.1,5.5,2.1,5.5s0.3-0.1,0.6,0.3S2.5,6.2,2.5,6.3C2.6,6.4,3.2,6.8,3.3,6.4
			z"/>
	</g>
</g>
<g>
	<g>
		<path fill="#584621" d="M38.9,20.4l0.9,0.2c-0.5,2.1-2.2,3.4-4.3,3.4c-2.6,0-4.6-2-4.6-4.6c0-2.6,2-4.6,4.6-4.6
			c2.2,0,3.8,1.3,4.3,3.3l-0.9,0.3c-0.4-1.7-1.7-2.7-3.4-2.7c-2,0-3.6,1.6-3.6,3.8c0,2.1,1.6,3.8,3.6,3.8
			C37.1,23.1,38.4,22.1,38.9,20.4z"/>
		<path fill="#584621" d="M49.6,19.9c0,2.4-1.5,4.1-3.7,4.1c-2.2,0-3.8-1.6-3.8-4.1v-5.1h0.9v5.1c0,1.9,1.1,3.2,2.8,3.2
			c1.7,0,2.8-1.2,2.8-3.2v-5.1h0.9V19.9z"/>
		<path fill="#584621" d="M58.4,23.8h-5.9v-9h0.9V23h4.9V23.8z"/>
		<path fill="#584621" d="M62.6,15.7v8.1h-0.9v-8.1h-3v-0.8h7v0.8H62.6z"/>
		<path fill="#584621" d="M75.2,19.9c0,2.4-1.5,4.1-3.7,4.1c-2.2,0-3.8-1.6-3.8-4.1v-5.1h0.9v5.1c0,1.9,1.1,3.2,2.8,3.2
			c1.7,0,2.8-1.2,2.8-3.2v-5.1h0.9V19.9z"/>
		<path fill="#584621" d="M84.6,23.8L82,21.5c-0.1,0-0.2,0-0.3,0H79v2.3h-0.9v-9h3.6c2.2,0,3.7,1.3,3.7,3.3c0,1.5-0.9,2.7-2.3,3.1
			l2.8,2.5H84.6z M81.7,20.6c1.7,0,2.8-1,2.8-2.5c0-1.5-1.1-2.5-2.8-2.5H79v5H81.7z"/>
		<path fill="#584621" d="M94.4,23.8H88v-9h6.4v0.8H89v3.2h5.3v0.8H89V23h5.5V23.8z"/>
	</g>
</g>
<g>
	<g>
		<path fill="#584621" d="M108.5,23.7h-0.6l-4.2-9h1l3.5,7.4l3.5-7.4h1L108.5,23.7z"/>
		<path fill="#584621" d="M122,19.8c0,2.4-1.5,4.1-3.7,4.1c-2.2,0-3.8-1.6-3.8-4.1v-5.1h0.9v5.1c0,1.9,1.1,3.2,2.8,3.2
			c1.7,0,2.8-1.2,2.8-3.2v-5.1h0.9V19.8z"/>
		<path fill="#584621" d="M130.8,23.7h-5.9v-9h0.9v8.1h4.9V23.7z"/>
		<path fill="#584621" d="M135,15.5v8.1h-0.9v-8.1h-3v-0.8h7v0.8H135z"/>
		<path fill="#584621" d="M147.6,19.8c0,2.4-1.5,4.1-3.7,4.1c-2.2,0-3.8-1.6-3.8-4.1v-5.1h0.9v5.1c0,1.9,1.1,3.2,2.8,3.2
			c1.7,0,2.8-1.2,2.8-3.2v-5.1h0.9V19.8z"/>
		<path fill="#584621" d="M157,23.7l-2.6-2.3c-0.1,0-0.2,0-0.3,0h-2.7v2.3h-0.9v-9h3.6c2.2,0,3.7,1.3,3.7,3.3c0,1.5-0.9,2.7-2.3,3.1
			l2.8,2.5H157z M154.1,20.5c1.7,0,2.8-1,2.8-2.5c0-1.5-1.1-2.5-2.8-2.5h-2.7v5H154.1z"/>
		<path fill="#584621" d="M166.9,23.7h-6.4v-9h6.4v0.8h-5.5v3.2h5.3v0.8h-5.3v3.2h5.5V23.7z"/>
	</g>
</g>
</svg>
