<?xml version="1.0" encoding="utf-8"?>
<!-- Generator: Adobe Illustrator 18.1.1, SVG Export Plug-In . SVG Version: 6.00 Build 0)  -->
<svg version="1.1" id="Layer_1" xmlns="http://www.w3.org/2000/svg" xmlns:xlink="http://www.w3.org/1999/xlink" x="0px" y="0px"
	 viewBox="0 0 407.1 65.6" enable-background="new 0 0 407.1 65.6" xml:space="preserve">
<g>
	<g>
		<path fill="#71A4A1" d="M107.2,35.1l2.1,0.4c-1.2,4.9-5.2,8-10.3,8c-6.1,0-10.9-4.8-10.9-11c0-6.2,4.8-11,10.9-11
			c5.1,0,9.1,3.1,10.3,7.9l-2.1,0.6c-1.1-4-4.1-6.4-8.2-6.4c-4.9,0-8.7,3.9-8.7,9c0,5,3.8,8.9,8.7,8.9
			C103,41.5,106.1,39.1,107.2,35.1z"/>
		<path fill="#71A4A1" d="M132.7,33.9c0,5.8-3.6,9.7-8.9,9.7c-5.3,0-8.9-3.9-8.9-9.7v-12h2.2v12c0,4.6,2.7,7.5,6.7,7.5
			c4,0,6.7-3,6.7-7.5v-12h2.2V33.9z"/>
		<path fill="#71A4A1" d="M153.5,43.2h-13.9V21.9h2.2v19.3h11.7V43.2z"/>
		<path fill="#71A4A1" d="M163.5,23.9v19.3h-2.2V23.9h-7.2v-2h16.6v2H163.5z"/>
		<path fill="#71A4A1" d="M193.5,33.9c0,5.8-3.6,9.7-8.9,9.7c-5.3,0-8.9-3.9-8.9-9.7v-12h2.2v12c0,4.6,2.7,7.5,6.7,7.5
			c4,0,6.7-3,6.7-7.5v-12h2.2V33.9z"/>
		<path fill="#71A4A1" d="M215.9,43.2l-6.2-5.5c-0.3,0-0.5,0-0.8,0h-6.4v5.5h-2.2V21.9h8.6c5.3,0,8.9,3.1,8.9,7.9
			c0,3.7-2.1,6.4-5.5,7.4l6.6,6H215.9z M208.9,35.7c4,0,6.7-2.4,6.7-5.9c0-3.5-2.7-5.9-6.7-5.9h-6.4v11.8H208.9z"/>
		<path fill="#71A4A1" d="M239.2,43.2H224V21.9h15.2v2h-13v7.6h12.5v2h-12.5v7.6h13V43.2z"/>
	</g>
</g>
<g>
	<g>
		<path fill="#71A4A1" d="M268.4,43.6h-1.5L257,22.3h2.4l8.2,17.7l8.2-17.7h2.4L268.4,43.6z"/>
		<path fill="#71A4A1" d="M300.5,34.3c0,5.8-3.6,9.7-8.9,9.7c-5.3,0-8.9-3.9-8.9-9.7v-12h2.2v12c0,4.6,2.7,7.5,6.7,7.5
			c4,0,6.7-3,6.7-7.5v-12h2.2V34.3z"/>
		<path fill="#71A4A1" d="M321.3,43.6h-13.9V22.3h2.2v19.3h11.7V43.6z"/>
		<path fill="#71A4A1" d="M331.4,24.3v19.3h-2.2V24.3H322v-2h16.6v2H331.4z"/>
		<path fill="#71A4A1" d="M361.3,34.3c0,5.8-3.6,9.7-8.9,9.7c-5.3,0-8.9-3.9-8.9-9.7v-12h2.2v12c0,4.6,2.7,7.5,6.7,7.5
			c4,0,6.7-3,6.7-7.5v-12h2.2V34.3z"/>
		<path fill="#71A4A1" d="M383.7,43.6l-6.2-5.5c-0.3,0-0.5,0-0.8,0h-6.4v5.5h-2.2V22.3h8.6c5.3,0,8.9,3.1,8.9,7.9
			c0,3.7-2.1,6.4-5.5,7.4l6.6,6H383.7z M376.7,36.1c4,0,6.7-2.4,6.7-5.9c0-3.5-2.7-5.9-6.7-5.9h-6.4v11.8H376.7z"/>
		<path fill="#71A4A1" d="M407.1,43.6h-15.2V22.3H407v2h-13v7.6h12.5v2H394v7.6h13V43.6z"/>
	</g>
</g>
<g>
	<defs>
		<circle id="SVGID_1_" cx="32.8" cy="32.8" r="32.8"/>
	</defs>
	<clipPath id="SVGID_2_">
		<use xlink:href="#SVGID_1_"  overflow="visible"/>
	</clipPath>
	<g clip-path="url(#SVGID_2_)">
		<path fill="#080808" d="M5.1,80c-27.4,0-54.7,0-82.1,0c-0.7,0-0.8-0.2-0.8-0.8c0-36.3,0-72.6,0-108.9c0-0.7,0.2-0.8,0.8-0.8
			c54.7,0,109.4,0,164.1,0c0.7,0,0.8,0.2,0.8,0.8c0,36.3,0,72.6,0,108.9c0,0.7-0.2,0.8-0.8,0.8C59.8,80,32.4,80,5.1,80z M44.7,4.5
			c-0.1-0.1-0.1-0.2-0.3-0.1c-0.2-0.1-0.4-0.2-0.7-0.2C43.7,4,43.5,3.9,43.4,4c-0.2,0-0.4-0.1-0.6-0.1c-1.1-0.5-2.2-0.8-3.5-0.9
			c-1.7-0.4-3.5-0.5-5.3-0.5c-4.8,0.2-9.5,0.8-14,2.9c-3.2,1.5-5.9,3.4-8.5,5.7c-2.9,2.6-5,5.8-6.7,9.2c-1.1,2.2-2,4.6-2.4,7
			c-0.7,4.2-0.6,8.4,0.5,12.7c1.1,4.6,3.2,8.7,6.4,12.2c0.1,0.1,0.1,0.3,0.2,0.4c4.4,4.5,9.3,8.1,15.8,9c1.7,0.3,3.4,0.6,5.2,0.9
			c0.2,0,0.5,0.2,0.6-0.1c0.1-0.3-0.3-0.3-0.5-0.4c-1.6-0.9-3.2-1.6-5-1.8c-0.3,0-0.7,0-0.9-0.4c-0.3-0.8-0.9-0.7-1.5-0.6
			c-0.4,0.1-0.8,0.1-0.9-0.5c-0.1-0.5,0.3-0.7,0.7-0.8c2.4-0.6,4.8-0.7,7.2,0.1c2.1,0.6,4.2,1.3,6.5,0.5c0.1,0,0.2,0,0.3,0
			c0.8,0.4,1.6,0.2,2.4,0.5c1.5,0.5,3,0.8,4.4,1.4c0.3,0.1,0.9,0.6,1.1-0.2l0,0l0,0c-0.5-0.7-0.4-1.4-0.3-2.1c0.1-1.4,0-2.6-1.6-3
			c-0.3-0.1-0.5-0.4-0.7-0.5c-1.1-0.9-1.2-1.5-0.1-2.4c0.3-0.3,0.7-0.8,0.4-0.9c-0.4-0.2-0.8-1.2-1.5-0.5c-0.2,0.2-0.4,0.6-0.6,0.3
			c-0.3-0.2,0-0.6,0.1-0.8c0.1-0.3,0.4-0.5,0.6-0.6c0.5-0.2,0.6-0.5,0.1-0.9c-0.5-0.3-0.7-0.8-0.8-1.4c-0.1-0.4-0.2-0.8-0.5-1
			c-0.3-0.2-0.4-0.4-0.5-0.8c0-0.7-0.4-1.3-0.6-2c-0.2-0.7-0.5-1.3-0.7-2.1c-0.3-1.6-0.7-3.2-1.1-4.8c-0.4-0.4-0.2-1-0.5-1.4
			c0-0.9-0.7-1.6-1-2.4c-0.2-0.8-0.6-0.6-1-0.2c0-0.6-0.3-1.1-0.4-1.7c-0.2-1.1-0.5-2.2-0.6-3.3c-0.1-0.3-0.1-0.5-0.6-0.4
			c-1,0.2-1.6,0.9-2.5,1.3c-0.9,0.4-1.1,2.1-0.7,2.9c0.2,0.4-0.1,0.4-0.3,0.4c-0.9,0.2-1.6-0.1-2.4-0.4c-0.8-0.6-1.5-1.4-1.6-2.4
			c0.2-0.8-0.1-1.6-0.3-2.3c-0.5-0.9-0.6-1.9-0.6-2.9c0-1,0-1.9,0.5-2.9c0.7-1.3,1.7-2.3,2.8-3.2c1.8-0.8,3.7-0.8,5.6-0.5
			c0.7,0.1,1-0.1,1.2-0.8c0.6-1.9,0.9-3.9,2.3-5.6c1.5-1.6,3.2-2.3,5.3-1.7c0.8,0.2,1.6,0.6,2.4,1c0.8,0.4,1.5,1.1,2.6,0.5
			c0.4-0.2,0.6-0.6,1-0.6c1.3,0.2,1.9-1.1,3.1-1.1C51.5,8.8,51.7,9,52,9.3c0.2,0.1,0.5,0.1,0.6-0.1c0.1-0.2-0.1-0.3-0.3-0.4
			c-2-1.4-4.1-2.7-6.4-3.7c-0.2-0.1-0.4-0.2-0.7-0.3c0-0.1-0.1-0.1-0.2-0.1C45,4.6,44.9,4.5,44.7,4.5z"/>
		<path fill="#71A4A1" d="M37,36.5c0.4,1.6,0.7,3.2,1.1,4.8c0.1,0.7,0.4,1.4,0.7,2.1c0.2,0.7,0.6,1.3,0.6,2c0,0.3,0.2,0.6,0.5,0.8
			c0.3,0.3,0.5,0.6,0.5,1c0.1,0.6,0.3,1.1,0.8,1.4c0.5,0.3,0.4,0.6-0.1,0.9c-0.3,0.1-0.5,0.4-0.6,0.6c-0.1,0.3-0.4,0.6-0.1,0.8
			c0.3,0.2,0.5-0.2,0.6-0.3c0.8-0.7,1.1,0.3,1.5,0.5c0.3,0.2,0,0.6-0.4,0.9c-1.1,0.9-1.1,1.5,0.1,2.4c0.2,0.2,0.5,0.5,0.7,0.5
			c1.7,0.4,1.7,1.6,1.6,3c-0.1,0.7-0.2,1.5,0.3,2.1l0,0c-0.2,0.8-0.8,0.4-1.1,0.2c-1.4-0.6-3-0.9-4.4-1.4c-0.8-0.3-1.6-0.1-2.4-0.5
			c-0.1,0-0.2,0-0.3,0c-2.2,0.8-4.4,0.1-6.5-0.5c-2.4-0.7-4.8-0.7-7.2-0.1c-0.4,0.1-0.8,0.2-0.7,0.8c0.1,0.5,0.5,0.5,0.9,0.5
			c0.6-0.1,1.2-0.2,1.5,0.6c0.1,0.4,0.6,0.4,0.9,0.4c1.8,0.2,3.5,0.9,5,1.8c0.2,0.1,0.6,0.1,0.5,0.4c-0.1,0.3-0.4,0.2-0.6,0.1
			c-1.7-0.3-3.4-0.6-5.2-0.9c-6.4-0.9-11.4-4.5-15.8-9c-0.1-0.1-0.1-0.3-0.2-0.4c0.9-0.4,0.2-0.9,0-1.4c-0.8-2-2.1-3.7-3.1-5.6
			c-0.5-0.8-0.7-1.6-0.6-2.5c0.1-0.8-0.1-1.5-0.5-2.1c-0.2-0.4-0.4-0.8-0.1-1.3c0.4-0.6,0.3-1.2,0.1-1.7c-0.3-0.5-0.3-1,0-1.6
			c0.3-0.5,0.3-1.1-0.1-1.6c-0.3-0.4-0.3-0.8-0.3-1.3c0-0.7,0.6-1.2,0.4-1.9c-0.3-1.8-0.3-3.6,0.4-5.4c0.1-0.3,0.2-0.5,0.5-0.5
			c0.3,0.1,0.7,0.1,0.6,0.6c0,0.4,0.2,0.8,0.4,1.2c0.6,1.2,0.5,1.5-0.7,2c0,0,0,0,0,0c0.4,0.7,0,1.5,0.5,2.2C7.2,31.6,7.3,32,7,32.4
			c-0.1,0.2-0.2,0.5,0,0.7c0.3,0.3,0.4-0.2,0.5-0.3c0.2-0.2,0.5-0.3,0.7-0.1c0.3,0.3,0,0.5-0.2,0.6c-0.1,0.1-0.3,0.2-0.4,0.3
			c-0.4,1.1-1,2.1-1.3,3.1c-0.6,2,0.8,3.6,1.3,5.6c0.5-1.3,0.5-1.9,0-2.8c-0.1-0.2-0.3-0.5-0.1-0.8c0.6-1,1.2-1.9,2.1-2.7
			c0.5-0.4,1.2-0.7,0.7-1.5c-0.2-0.3,0-0.5,0.4-0.6c0.2,0,0.5,0,0.5-0.3c0-0.4-0.3-0.4-0.6-0.4l0,0c0.1-0.7,0.5-1,1.2-0.8
			c0.2,0,0.4,0,0.5,0c0.6,0,0.9-0.3,1-0.8c0.1-0.5-0.3-0.6-0.7-0.7c-0.8-0.3-1.2-1-1-1.9c0.1-0.4,0.2-0.8,0.2-1.2
			c0-0.9-0.5-1.2-1.3-0.7c-0.2,0.1-0.4,0.4-0.6,0.2c-0.3-0.9,0.2-1.6,0.2-2.4c0-0.5,0-0.9,0.6-1.1c0.5-0.2,0.3-0.7,0.3-1.1
			c0-0.2-0.1-0.4-0.4-0.3c-0.6,0.3-0.5-0.1-0.5-0.5c0.1-0.6,0.1-1.3,1-1.2c0.3,0,0.3-0.5,0.6-0.6c0.2,0.2,0.1,0.6,0.5,0.6
			c0.9,0.1,0.9,0.5,0.4,1.1c-0.2,0.3-0.4,0.7,0,0.9c0.4,0.2,0.9,0.3,1.2-0.2c0.1-0.2,0.2-0.4,0.3-0.6c0.4-0.8,1.1-1,1.9-0.7
			c0.3,0.1,0.5,0.1,0.7,0c0.9-0.2,1.7-0.9,2.5-1.3c0.6-0.3,0.5-1.1-0.2-1.4c-0.2-0.1-0.4-0.3-0.5-0.5c0,0,0,0,0,0c0,0,0,0,0,0.1
			c-0.3,0-0.7,0.3-0.9-0.2c-0.1-0.4,0.3-0.5,0.6-0.5c0.5-0.1,0.7-0.4,0.7-0.8c0-0.4,0.1-0.7,0.6-0.7c1.3,0,2.6-0.2,2.9-1.8
			c0-0.1,0.1-0.2,0.2-0.3c0.2-0.4,0.5-0.5,0.7,0c0.2,0.5,0.6,0.6,1,0.8c0.3,0.1,0.9,0.3,0.6-0.5c-0.2-0.4,0.1-0.7,0.4-0.6
			c1,0.1,2.2-0.1,2.9,1c0.1,0.1,0.1,0.1,0.2,0.2c0,0.5,0.2,1.2,0,1.4c-0.6,0.5-0.5,1.1-0.6,1.7c-1.1,0.9-2.1,1.9-2.8,3.2
			c-0.5,0.9-0.5,1.9-0.5,2.9c0,1,0.2,2,0.6,2.9c-0.2,0.1-0.4,0.2-0.5,0.4c-0.2,0.3-0.3,1.3-0.1,1.3c0.4,0,0.6,0.4,0.9,0.6
			c0.1,1.1,0.7,1.8,1.6,2.4c-0.3,0.2-0.6,0.4-0.6,0.8c0.1,0.4,0.6,0.2,0.9,0.5c0,0,0.2,0,0.3,0c0.4,0.1,0.6,0.3,0.3,0.7
			c-0.1,0.2-0.4,0.2-0.3,0.6c0.3,0,0.6,0.2,0.9,0.5c0-0.3,0.1-0.5,0.1-0.7c0.1-1,0.4-1.1,1.3-0.8c0.5,0.2,0.9,0.5,1.3,0.8
			c0.2,0.2,0.4,0.5,0.3,0.7c-0.5,0.8,0.1,1.8-0.3,2.6c-0.1,0.2,0,0.4,0.1,0.5c0.2,0.1,0.3,0.1,0.4-0.1c0.5-0.9,0.7-0.3,0.9,0.2
			c0.1,0.3,0.1,0.5,0.2,0.8c0.1,0.4,0.3,0.8,0.6,0.8c0.5,0.1,0.6-0.3,0.7-0.7c0.1-0.1,0.1-0.3,0.2-0.4c0.6-1,0.5-1-0.5-1.3
			c-0.2-0.1-0.4-0.1-0.4-0.4c0.8,0.1,1.6-0.3,2.3,0.3c0,0,0.1,0,0.1,0l0-0.1C36.1,36.2,36.6,36.5,37,36.5z M19.2,33.6
			c0,0,0-0.2-0.1-0.1C19.2,33.5,19.2,33.6,19.2,33.6c-0.1,0-0.2,0.1-0.2,0.1c-0.3,0.1-0.9,0.1-0.7,0.6c0.2,0.5,0.3,1.2,1,1.4
			c0.1,0,0.3,0,0.4-0.1c0.5-0.4,0.2-1,0.2-1.6C20,33.6,19.6,33.6,19.2,33.6z M12.5,49.1c-0.8-0.5-1.5-0.6-1.9-1.2
			c-0.4-0.8-1-1.4-1.7-1.9c-0.1-0.1-0.5-0.2-0.3-0.4c0.2-0.3,0.2-0.4-0.1-0.6c-0.1,0-0.2,0-0.3,0c-0.3,0.2-0.1,0.4-0.1,0.7
			c0.2,0.8,0.5,1.5,1,2.1c0.2,0.2,0.2,0.4,0.2,0.7c-0.1,1,1.1,0.5,1.3,1.2c0,0.1,0.3,0.3,0.5,0.2c0,0,0.1-0.1,0.1-0.1
			C11.3,49.1,11.8,49,12.5,49.1z M26.8,43.7c-0.4,0.1-0.8,0.1-0.9,0.6c-0.1,0.3,1,1.5,1.3,1.4c0.5-0.1,0.4-0.7,0.5-1.1
			C27.7,44,27.2,43.9,26.8,43.7z M22.9,29.6c0-0.2,0.1-0.5-0.2-0.5c-0.4,0-0.8,0.2-0.9,0.7c0,0.3,0.1,0.8,0.5,0.8
			C22.9,30.5,22.7,29.9,22.9,29.6z M36.4,41.1c-0.3,0-0.4,0.2-0.5,0.5c0,0.2,0,0.4,0.2,0.3c0.3,0,0.5-0.2,0.6-0.5
			C36.7,41.2,36.6,41.1,36.4,41.1z M21.3,26.3c-0.3,0-0.4,0.2-0.3,0.4c0,0.2-0.1,0.5,0.3,0.5c0.2,0,0.4-0.2,0.4-0.4
			C21.6,26.6,21.5,26.4,21.3,26.3z M42.6,58.3c0.1-0.1,0.3-0.2,0.4-0.4c0-0.1-0.2-0.2-0.3-0.2c-0.2,0-0.4,0.1-0.4,0.4
			C42.3,58.2,42.4,58.3,42.6,58.3z"/>
		<path fill="#71A4A1" d="M28.2,14.4c-0.7-1.1-1.8-0.9-2.9-1c-0.3,0-0.6,0.2-0.4,0.6c0.4,0.8-0.3,0.6-0.6,0.5
			c-0.4-0.2-0.8-0.3-1-0.8c-0.2-0.5-0.5-0.4-0.7,0c-0.1,0.1-0.2,0.2-0.2,0.3c-0.3,1.6-1.6,1.8-2.9,1.8c-0.5,0-0.6,0.4-0.6,0.7
			c0,0.5-0.2,0.7-0.7,0.8c-0.3,0.1-0.7,0.1-0.6,0.5c0.1,0.5,0.5,0.2,0.9,0.2l0,0c0.2,0.2,0.3,0.4,0.5,0.5c0.6,0.3,0.7,1,0.2,1.4
			c-0.8,0.5-1.5,1.1-2.5,1.3c-0.2,0.1-0.4,0.1-0.7,0c-0.8-0.3-1.5-0.1-1.9,0.7c-0.1,0.2-0.2,0.4-0.3,0.6c-0.3,0.6-0.7,0.5-1.2,0.2
			c-0.4-0.3-0.3-0.6,0-0.9c0.5-0.6,0.5-1-0.4-1.1c-0.4,0-0.3-0.4-0.5-0.6c-0.3,0.2-0.3,0.6-0.6,0.6c-0.9,0-0.9,0.7-1,1.2
			c-0.1,0.3-0.2,0.8,0.5,0.5c0.2-0.1,0.4,0.1,0.4,0.3c0,0.4,0.2,0.9-0.3,1.1c-0.6,0.2-0.6,0.6-0.6,1.1c0,0.8-0.5,1.5-0.2,2.4
			c0.2,0.2,0.4-0.1,0.6-0.2c0.8-0.4,1.3-0.2,1.3,0.7c0,0.4-0.1,0.8-0.2,1.2c-0.2,0.9,0.2,1.6,1,1.9c0.4,0.1,0.8,0.2,0.7,0.7
			c-0.1,0.5-0.5,0.9-1,0.8c-0.2,0-0.4,0-0.5,0c-0.7-0.2-1,0.2-1.2,0.8l0,0c0.3,0,0.6,0,0.6,0.4c0,0.3-0.3,0.2-0.5,0.3
			c-0.3,0-0.5,0.2-0.4,0.6c0.5,0.9-0.3,1.2-0.7,1.5c-0.9,0.7-1.5,1.7-2.1,2.7c-0.1,0.2,0,0.5,0.1,0.8c0.5,0.9,0.5,1.4,0,2.8
			c-0.5-2-1.9-3.6-1.3-5.6c0.3-1,0.9-2.1,1.3-3.1c0-0.1,0.2-0.2,0.4-0.3c0.2-0.2,0.5-0.3,0.2-0.6c-0.2-0.3-0.5-0.1-0.7,0.1
			c-0.2,0.1-0.2,0.6-0.5,0.3c-0.2-0.2-0.1-0.5,0-0.7c0.3-0.5,0.2-0.9-0.1-1.3c-0.5-0.7-0.1-1.5-0.5-2.2l0,0c1.2-0.5,1.3-0.8,0.7-2
			c-0.2-0.4-0.5-0.7-0.4-1.2c0-0.5-0.3-0.5-0.6-0.6c-0.4-0.1-0.4,0.2-0.5,0.5C4.7,27.4,4.7,29.2,5,31c0.1,0.8-0.4,1.2-0.4,1.9
			c0,0.5,0,1,0.3,1.3c0.4,0.5,0.4,1.1,0.1,1.6c-0.3,0.5-0.3,1,0,1.6c0.3,0.6,0.3,1.2-0.1,1.7c-0.3,0.4-0.2,0.9,0.1,1.3
			c0.4,0.6,0.6,1.3,0.5,2.1c-0.1,0.9,0.2,1.7,0.6,2.5c1.1,1.8,2.3,3.6,3.1,5.6c0.2,0.4,0.8,0.9,0,1.4c-3.2-3.5-5.2-7.6-6.4-12.2
			c-1-4.2-1.2-8.4-0.5-12.7c0.4-2.4,1.3-4.8,2.4-7c1.7-3.5,3.8-6.7,6.7-9.2c2.6-2.3,5.3-4.2,8.5-5.7c4.5-2.1,9.2-2.7,14-2.9
			c1.8-0.1,3.5,0.1,5.3,0.5c1.1,0.4,2.3,0.7,3.5,0.9C43,3.9,43.2,4,43.4,4c0.1,0.2,0.2,0.2,0.4,0.1c0.2,0.1,0.4,0.2,0.7,0.2
			c0.1,0.1,0.1,0.2,0.3,0.1c0.2,0.1,0.3,0.1,0.5,0.2c0,0.1,0.1,0.1,0.2,0.1C45.6,4.9,45.8,5,46,5.1c0.2,0.4,0.5,0.6,0.9,0.8
			c1.5,0.8,3.1,1.6,4.2,3c-1.1,0-1.8,1.3-3.1,1.1c-0.4-0.1-0.6,0.4-1,0.6c-1.1,0.5-1.8-0.1-2.6-0.5c-0.8-0.4-1.5-0.7-2.4-1
			c-2.1-0.6-3.8,0.1-5.3,1.7c-1.5,1.6-1.8,3.6-2.3,5.6c-0.2,0.7-0.5,0.9-1.2,0.8c-1.9-0.3-3.8-0.3-5.6,0.5c0.1-0.6,0.1-1.2,0.6-1.7
			c0.2-0.2,0-0.9,0-1.4c0,0,0-0.1,0.1-0.1C28.4,14.4,28.3,14.4,28.2,14.4z M35.3,10.3c0-0.9-0.3-1.4-1-1.4c-0.2,0-0.5,0-0.5-0.2
			c-0.2-0.9-1.1-1.3-1.7-1.9c-0.2-0.2-0.5-0.3-0.8-0.3c-1.3,0.1-2.3,1-3.5,1.1c-0.1,0-0.2,0.1-0.2,0.2c-0.1,1-0.9,1.6-1.5,2.3
			c-0.4,0.5-0.4,1.1,0.2,1.4c0.6,0.4,1.2,0.5,1.7,1.2c0.6,0.9,2.1,1.3,3.4,0.3c0.2-0.2,0.6-0.4,0.7-0.1c0.1,0.5,0.3,0.5,0.6,0.3
			c0.4-0.2,1-0.2,1-0.8c0-0.9,0.6-1.2,1.2-1.4C35.2,10.8,35.3,10.5,35.3,10.3z M20.5,11.7c0.5,0.2,0.8-0.2,1.1-0.4
			c0.5-0.4,0.9-1,1.3-1.4c0.4-0.4,0.4-0.9,0.2-1.4c-0.2-0.6-0.6-0.8-1.2-0.7c-0.2,0-0.5,0.1-0.6,0c-0.8-0.7-1.4-0.2-2,0.3
			c-0.8,0.6-1.6,1.1-2.1,2c-0.4,0.7-0.5,1.2,0,1.8c0.5,0.7,1.1,0.9,1.9,0.5C19.5,12,20,11.6,20.5,11.7z M25.3,6.2
			c0.2,0,0.4,0,0.4-0.3c0-0.2,0-0.5-0.3-0.4c-0.2,0-0.5,0.1-0.5,0.4C24.9,6.1,25.1,6.2,25.3,6.2z M8.5,26.6c-0.1,0-0.3,0.3-0.4,0.5
			c-0.1,0.2,0,0.3,0.2,0.3c0.3,0,0.5-0.2,0.6-0.5C9,26.7,8.8,26.7,8.5,26.6z M9,26.1L9,26.1L9,26.1L9,26.1z"/>
		<path fill="#71A4A1" d="M35.8,36.7c-0.7-0.6-1.5-0.2-2.3-0.3c0,0.3,0.2,0.4,0.4,0.4c1,0.3,1.1,0.3,0.5,1.3
			c-0.1,0.1-0.1,0.3-0.2,0.4c-0.2,0.3-0.3,0.8-0.7,0.7c-0.4-0.1-0.5-0.5-0.6-0.8c-0.1-0.3-0.1-0.5-0.2-0.8c-0.2-0.5-0.4-1.1-0.9-0.2
			c-0.1,0.2-0.2,0.2-0.4,0.1c-0.2-0.1-0.2-0.3-0.1-0.5c0.5-0.8-0.2-1.8,0.3-2.6c0.1-0.2-0.1-0.5-0.3-0.7c-0.4-0.3-0.8-0.6-1.3-0.8
			c-1-0.4-1.2-0.3-1.3,0.8c0,0.2,0,0.4-0.1,0.7c-0.3-0.2-0.6-0.5-0.9-0.5c-0.1-0.3,0.2-0.4,0.3-0.6c0.3-0.4,0.1-0.6-0.3-0.7
			c-0.1,0-0.2,0.1-0.3,0c-0.3-0.2-0.8,0-0.9-0.5c-0.1-0.4,0.3-0.6,0.6-0.8c0.8,0.3,1.5,0.6,2.4,0.4c0.2-0.1,0.5,0,0.3-0.4
			c-0.4-0.8-0.1-2.5,0.7-2.9c0.8-0.4,1.5-1.1,2.5-1.3c0.5-0.1,0.6,0,0.6,0.4c0.2,1.1,0.4,2.2,0.6,3.3c0.1,0.6,0.4,1.1,0.4,1.7
			c-0.1,0.6,0.6,0.8,0.6,1.4c-0.1,1.1,0.5,1.4,1.4,1.3c0.2,0.4,0.1,1,0.5,1.4C36.6,36.5,36.1,36.2,35.8,36.7L35.8,36.7z"/>
		<path fill="#71A4A1" d="M51.1,8.9c-1.1-1.4-2.7-2.2-4.2-3c-0.4-0.2-0.7-0.5-0.9-0.8c2.3,0.9,4.4,2.2,6.4,3.7
			c0.1,0.1,0.4,0.2,0.3,0.4c-0.1,0.2-0.5,0.3-0.6,0.1C51.7,9,51.5,8.8,51.1,8.9z"/>
		<path fill="#71A4A1" d="M36.5,35.1c-0.9,0.1-1.5-0.2-1.4-1.3c0.1-0.6-0.6-0.8-0.6-1.4c0.4-0.4,0.8-0.5,1,0.2
			C35.8,33.5,36.5,34.2,36.5,35.1z"/>
		<path fill="#71A4A1" d="M25.4,28.9c-0.3-0.1-0.5-0.5-0.9-0.6c-0.2,0-0.1-1.1,0.1-1.3c0.1-0.2,0.3-0.3,0.5-0.4
			C25.4,27.4,25.6,28.1,25.4,28.9z"/>
		<path fill="#71A4A1" d="M42.8,3.9c-1.2-0.2-2.3-0.5-3.5-0.9C40.6,3.1,41.7,3.3,42.8,3.9z"/>
		<path fill="#71A4A1" d="M45.4,4.8c-0.1,0.1-0.2,0-0.2-0.1C45.3,4.6,45.4,4.6,45.4,4.8z"/>
		<path fill="#71A4A1" d="M43.8,4.1c-0.2,0.1-0.3,0-0.4-0.1C43.5,3.9,43.7,4,43.8,4.1z"/>
		<path fill="#71A4A1" d="M44.7,4.5c-0.1,0.1-0.2,0-0.3-0.1C44.6,4.3,44.6,4.4,44.7,4.5z"/>
		<polygon fill="#71A4A1" points="44.8,60 44.8,60.1 44.8,60.1 		"/>
		<path fill="#71A4A1" d="M12.5,49.1c-0.8-0.1-1.2,0-1.3,0.6c0,0.1-0.1,0.1-0.1,0.1c-0.2,0.1-0.4,0-0.5-0.2
			c-0.2-0.7-1.5-0.2-1.3-1.2c0-0.3,0-0.5-0.2-0.7c-0.5-0.6-0.8-1.4-1-2.1c-0.1-0.2-0.2-0.5,0.1-0.7c0.1-0.1,0.3-0.1,0.3,0
			c0.3,0.1,0.3,0.3,0.1,0.6c-0.2,0.3,0.2,0.3,0.3,0.4c0.7,0.5,1.3,1.1,1.7,1.9C11,48.5,11.8,48.6,12.5,49.1z"/>
		<path fill="#71A4A1" d="M19.2,33.6c0.3,0,0.8,0,0.8,0.4c0,0.5,0.2,1.1-0.2,1.6c-0.1,0.1-0.3,0.2-0.4,0.1c-0.7-0.2-0.8-0.9-1-1.4
			c-0.2-0.5,0.4-0.5,0.7-0.6C19.1,33.7,19.2,33.6,19.2,33.6L19.2,33.6z"/>
		<path fill="#71A4A1" d="M26.8,43.7c0.5,0.1,1,0.3,0.9,1c-0.1,0.4,0,0.9-0.5,1.1c-0.3,0.1-1.3-1.1-1.3-1.4
			C25.9,43.8,26.4,43.8,26.8,43.7z"/>
		<path fill="#71A4A1" d="M22.9,29.6c-0.1,0.3,0,0.9-0.6,1c-0.4,0-0.5-0.4-0.5-0.8c0-0.5,0.5-0.6,0.9-0.7C23,29,22.8,29.4,22.9,29.6
			z"/>
		<path fill="#71A4A1" d="M36.4,41.1c0.2,0,0.3,0.1,0.3,0.3c-0.1,0.3-0.3,0.5-0.6,0.5c-0.2,0-0.2-0.2-0.2-0.3
			C35.9,41.3,36.1,41.1,36.4,41.1z"/>
		<path fill="#71A4A1" d="M21.3,26.3c0.3,0.1,0.3,0.3,0.3,0.5c0,0.2-0.2,0.4-0.4,0.4c-0.3,0-0.2-0.3-0.3-0.5
			C20.9,26.5,21,26.4,21.3,26.3z"/>
		<path fill="#71A4A1" d="M42.6,58.3c-0.2,0-0.3,0-0.3-0.2c0-0.3,0.2-0.4,0.4-0.4c0.1,0,0.3,0,0.3,0.2C43,58.1,42.7,58.2,42.6,58.3z
			"/>
		<path fill="#71A4A1" d="M19.3,33.6c0,0-0.1-0.1-0.1-0.1C19.2,33.4,19.2,33.6,19.3,33.6L19.3,33.6z"/>
		<path fill="#71A4A1" d="M18.5,18.1C18.5,18.1,18.5,18.1,18.5,18.1C18.5,18.1,18.5,18.1,18.5,18.1C18.5,18.1,18.5,18.1,18.5,18.1z"
			/>
		<polygon fill="#71A4A1" points="35.8,36.7 35.9,36.8 35.8,36.7 		"/>
		<path fill="#71A4A1" d="M6.4,29C6.4,29,6.3,29,6.4,29L6.4,29z"/>
		<path fill="#71A4A1" d="M35.3,10.3c0,0.2-0.1,0.5-0.6,0.7c-0.6,0.2-1.2,0.5-1.2,1.4c0,0.6-0.6,0.6-1,0.8c-0.3,0.1-0.5,0.2-0.6-0.3
			c-0.1-0.3-0.4-0.1-0.7,0.1c-1.2,1-2.7,0.6-3.4-0.3c-0.5-0.7-1.1-0.8-1.7-1.2c-0.6-0.4-0.5-0.9-0.2-1.4c0.5-0.7,1.4-1.3,1.5-2.3
			c0-0.1,0.2-0.2,0.2-0.2c1.3,0,2.3-1,3.5-1.1c0.3,0,0.6,0.1,0.8,0.3c0.6,0.6,1.5,1,1.7,1.9c0.1,0.2,0.3,0.2,0.5,0.2
			C35,8.9,35.3,9.4,35.3,10.3z"/>
		<path fill="#71A4A1" d="M20.5,11.7c-0.6-0.1-1,0.3-1.5,0.6c-0.8,0.4-1.4,0.2-1.9-0.5c-0.5-0.6-0.4-1.1,0-1.8
			c0.5-0.9,1.3-1.5,2.1-2c0.6-0.4,1.2-0.9,2-0.3c0.1,0.1,0.4,0,0.6,0c0.6-0.1,1,0.2,1.2,0.7c0.2,0.5,0.2,1-0.2,1.4
			c-0.4,0.5-0.8,1-1.3,1.4C21.3,11.5,21.1,11.9,20.5,11.7z"/>
		<path fill="#71A4A1" d="M25.3,6.2c-0.2,0-0.4-0.1-0.4-0.3c0-0.3,0.3-0.3,0.5-0.4c0.3-0.1,0.3,0.2,0.3,0.4
			C25.7,6.2,25.5,6.2,25.3,6.2z"/>
		<path fill="#71A4A1" d="M8.5,26.6c0.3,0,0.5,0.1,0.4,0.3c-0.1,0.3-0.3,0.4-0.6,0.5c-0.2,0-0.3-0.1-0.2-0.3
			C8.2,26.9,8.3,26.7,8.5,26.6z"/>
		<polygon fill="#71A4A1" points="9,26.1 9,26.1 9.1,26.1 		"/>
		<path fill="#71A4A1" d="M28.2,14.4c0.1,0,0.2,0,0.2,0c0,0,0,0.1-0.1,0.1C28.3,14.5,28.3,14.4,28.2,14.4z"/>
		<path fill="#71A4A1" d="M10.6,33.4L10.6,33.4L10.6,33.4z"/>
	</g>
</g>
</svg>
