<?xml version="1.0" encoding="utf-8"?>
<!-- Generator: Adobe Illustrator 18.1.1, SVG Export Plug-In . SVG Version: 6.00 Build 0)  -->
<svg version="1.1" id="Layer_1" xmlns="http://www.w3.org/2000/svg" xmlns:xlink="http://www.w3.org/1999/xlink" x="0px" y="0px"
	 viewBox="0 0 42.3 42.3" enable-background="new 0 0 42.3 42.3" xml:space="preserve">
<g>
	<g>
		<circle fill="#E3A126" cx="21.1" cy="21.1" r="21.1"/>
		<g>
			<path fill="#FFFFFF" d="M8.7,22.5c0-3.7,0-7.3,0-11c0-1.8,1.5-2.9,3.3-2.4c0.2,0.1,0.3,0.2,0.3,0.4c0,0.3,0,0.6,0,0.9
				c0.1,0.8,0.4,1.4,1.2,1.7c0.7,0.3,1.5,0.2,2.1-0.3c0.6-0.5,0.5-1.2,0.6-1.8c0.1-0.9,0.1-0.9,0.9-0.9c2.7,0,5.4,0,8.1,0
				c0.6,0,0.8,0.2,0.8,0.8c0,0.4,0,0.7,0.1,1.1c0.3,0.9,1.2,1.4,2.3,1.3c0.9-0.1,1.5-0.8,1.6-1.7c0.1-0.5-0.5-1.3,0.5-1.4
				c1.6-0.2,2.7,0.4,3,1.5c0.1,0.3,0.1,0.7,0.1,1c0,7.2,0,14.4,0,21.6c0,1.7-0.9,2.5-2.5,2.5c-6.6,0-13.3,0-19.9,0
				c-1.3,0-2.6-0.7-2.5-2.5C8.7,29.7,8.7,26.1,8.7,22.5z M21.2,14.7c-3,0-5.9,0-8.9,0c-0.5,0-0.7,0.1-0.7,0.7c0,5.6,0,11.2,0,16.8
				c0,0.5,0.2,0.7,0.7,0.7c5.9,0,11.8,0,17.8,0c0.6,0,0.7-0.2,0.7-0.8c0-5.6,0-11.1,0-16.7c0-0.6-0.2-0.8-0.8-0.8
				C27.1,14.8,24.1,14.7,21.2,14.7z"/>
			<path fill="#FFFFFF" d="M15,8.8c0,0.5,0,1,0,1.5c0,0.5-0.2,0.9-0.8,0.9c-0.5,0-0.7-0.4-0.8-0.9c0-1,0-2,0-3
				c0-0.5,0.2-0.8,0.7-0.8c0.5,0,0.7,0.3,0.8,0.8C15,7.7,15,8.3,15,8.8L15,8.8z"/>
			<path fill="#FFFFFF" d="M27.3,8.7c0-0.5,0-1,0-1.5c0-0.4,0.2-0.7,0.7-0.8c0.5-0.1,0.8,0.2,0.8,0.7c0.1,1.1,0.1,2.2,0,3.3
				c0,0.4-0.3,0.8-0.8,0.7c-0.5,0-0.7-0.4-0.7-0.8C27.3,9.8,27.3,9.2,27.3,8.7z"/>
			<path fill="#FFFFFF" d="M28.7,19.9c0,0.2-0.1,0.3-0.2,0.4c-2.3,2.2-4.6,4.5-7,6.7c-0.2,0.2-0.4,0.2-0.7,0c-1.6-1.5-3.1-3-4.7-4.5
				c-0.3-0.3-0.4-0.5,0-0.8c1.4-1.3,0.9-1.3,2.3,0c0.8,0.7,1.5,1.5,2.2,2.2c0.4,0.4,0.7,0.5,1.1,0c1.7-1.7,3.4-3.3,5.1-5
				c0.4-0.4,0.7-0.4,1,0c0.2,0.2,0.4,0.4,0.7,0.7C28.6,19.7,28.7,19.8,28.7,19.9z"/>
		</g>
	</g>
</g>
</svg>
