<?xml version="1.0" encoding="utf-8"?>
<!-- Generator: Adobe Illustrator 18.1.1, SVG Export Plug-In . SVG Version: 6.00 Build 0)  -->
<svg version="1.1" id="Layer_1" xmlns="http://www.w3.org/2000/svg" xmlns:xlink="http://www.w3.org/1999/xlink" x="0px" y="0px"
	 viewBox="0 0 42.3 42.3" enable-background="new 0 0 42.3 42.3" xml:space="preserve">
<g>
	<circle fill="#838C3D" cx="21.1" cy="21.1" r="21.1"/>
	<g>
		<path fill="#FFFFFF" d="M35.9,23.7c-0.1,3.1-1.6,5.5-4.4,6.7c-2.9,1.3-5.6,0.7-8-1.4c-0.8-0.7-1.4-1.7-1.9-2.7
			c-0.3-0.6-0.3-0.6-0.7,0c-0.7,1.2-1.4,2.4-2.5,3.2c-2.4,1.8-5.1,2.1-7.8,0.8c-2.6-1.3-4-3.5-4.1-6.4c-0.1-1.4,0.3-2.8,1.1-4
			c1.6-2.7,3.2-5.5,4.8-8.2c0.3-0.6,0.4-0.6,0.8-0.1c2.1,2.3,4.6,4.1,7.5,5.4c0.4,0.2,0.7,0.2,1.1,0c3-1.2,5.5-3.1,7.6-5.4
			c0.4-0.4,0.5-0.4,0.8,0.1c1.6,2.7,3.1,5.4,4.7,8.1C35.5,20.9,35.9,22.2,35.9,23.7z M27.2,28.2c0-1.6,0.5-2.8,1.9-3.6
			c1.3-0.8,2.7-0.6,4,0.1c-0.3-1.4-1.6-2.3-3.1-2.5c-1.4-0.1-2.8,0.7-3.5,2C25.9,25.6,26.1,27.1,27.2,28.2z M17.1,24.7
			c-1.3,0.7-2.7,0.9-4,0.1c-1.3-0.8-1.9-2-1.9-3.6c-1.1,1-1.4,2.6-0.8,3.9c0.7,1.4,2.2,2.3,3.7,2.1C15.7,27,16.9,26,17.1,24.7z
			 M12.6,16.3c-0.5,0.6-0.6,1.3-0.2,1.9c0.4,0.6,0.9,0.9,1.6,0.9c0.7,0,1.2-0.4,1.4-1C13.8,18.5,13,18,12.6,16.3z M27.6,19.5
			c0.2-0.7,0.5-1.3,1.1-1.7c0.6-0.4,1.2-0.2,1.9,0c-0.4-0.8-0.9-1.1-1.6-1.1c-0.7,0-1.3,0.4-1.6,1C27.2,18.4,27.2,18.9,27.6,19.5z
			 M20.8,21.1c-0.7,0.3-1.3,0.3-1.9,0c-0.6-0.4-0.9-1-1-1.7c-0.7,1-0.4,2,0.5,2.5C19.2,22.4,20.3,22.1,20.8,21.1z M22.4,22.6
			c0.1-0.7,0.4-1.3,0.9-1.7c0.6-0.4,1.2-0.3,1.9-0.1c-0.6-1-1.6-1.3-2.5-0.8C21.9,20.6,21.7,21.6,22.4,22.6z"/>
	</g>
</g>
</svg>
