<?xml version="1.0" encoding="utf-8"?>
<!-- Generator: Adobe Illustrator 18.1.1, SVG Export Plug-In . SVG Version: 6.00 Build 0)  -->
<svg version="1.1" id="Layer_1" xmlns="http://www.w3.org/2000/svg" xmlns:xlink="http://www.w3.org/1999/xlink" x="0px" y="0px"
	 viewBox="0 0 42.3 42.3" enable-background="new 0 0 42.3 42.3" xml:space="preserve">
<g>
	<g>
		<circle fill="#574620" cx="21.1" cy="21.1" r="21.1"/>
		<g>
			<g>
				<path fill="#FFFFFF" d="M32.6,18c0,2.9-0.1,5.9,0,8.8c0.1,2.7-1.9,4.2-3.7,4.6c-0.8,0.2-1.6,0.2-2.4,0c-1.4-0.3-2.5-1.1-2.8-2.5
					c-0.3-1.5,0.4-2.6,1.4-3.5c1.4-1.1,2.9-1.4,4.6-1.1c0.4,0.1,0.5,0,0.5-0.4c0-2.7,0-5.3,0-8c0-0.4-0.1-0.5-0.5-0.4
					c-3.6,0.3-7.1,1-10.6,2c-0.4,0.1-0.6,0.3-0.6,0.8c0,3.8,0,7.6,0,11.4c0,2.1-0.9,3.4-2.7,4.2c-1.3,0.6-2.6,0.7-3.9,0.2
					c-1.3-0.4-2.2-1.2-2.4-2.6c-0.2-1.3,0.4-2.3,1.4-3.1c1.4-1.1,3-1.6,4.7-1.2c0.5,0.1,0.6,0,0.6-0.5c0-5,0-10.1,0-15.1
					c0-0.6,0.2-0.8,0.7-1c3.7-1.4,7.6-2.3,11.6-2.6c1.1-0.1,2.2-0.1,3.3-0.1c0.5,0,0.7,0.2,0.7,0.7C32.6,11.7,32.6,14.9,32.6,18z"/>
			</g>
		</g>
	</g>
</g>
</svg>
