<?xml version="1.0" encoding="utf-8"?>
<!-- Generator: Adobe Illustrator 18.1.1, SVG Export Plug-In . SVG Version: 6.00 Build 0)  -->
<svg version="1.1" id="Layer_1" xmlns="http://www.w3.org/2000/svg" xmlns:xlink="http://www.w3.org/1999/xlink" x="0px" y="0px"
	 viewBox="0 0 42.3 42.3" enable-background="new 0 0 42.3 42.3" xml:space="preserve">
<g>
	<g>
		<circle fill="#71A4A1" cx="21.1" cy="21.1" r="21.1"/>
		<g>
			<path fill="#FFFFFF" d="M37.9,22.9c0,4.1-2.7,7.2-6.6,7.8c-3.3,0.5-6.9-1.7-8-5.1c-0.3-0.8-0.6-1-1.3-0.6c-0.7,0.3-1.4,0.3-2,0
				c-0.7-0.4-0.8,0-1,0.5c-1,2.9-3,4.5-5.9,5.2c-3.7,0.8-7.8-1.9-8.6-5.9C4,22.2,4.7,20,6.4,18.1c0.9-1,1.9-1.8,3-2.7
				c1.1-0.9,2.4-1.4,3.8-1.5c0.4,0,0.7-0.2,1-0.5c0.3-0.3,0.6-0.6,0.9-0.9c1.6-1.3,3-1.3,4.5,0.1c0.7,0.7,2.3,0.7,3,0
				c1.7-1.5,3.4-1.5,4.9,0.2c0.6,0.7,1.2,1.1,2.2,1.2c1.3,0.1,2.5,0.8,3.5,1.7c0.7,0.7,1.5,1.3,2.2,2C37.1,19.2,37.9,21,37.9,22.9z
				 M11.7,18.6c-2.8,0-4.9,2.1-4.9,4.8c0,2.7,2.1,4.9,4.9,4.9c2.7,0,4.9-2.2,4.9-4.9C16.6,20.7,14.5,18.6,11.7,18.6z M30.4,18.6
				c-2.7,0-5,2.2-5,4.9c0,2.7,2.3,4.9,5,4.9c2.7,0,4.9-2.2,4.9-4.9C35.3,20.7,33.2,18.6,30.4,18.6z M22.9,21.1
				c0-0.8-0.9-1.7-1.7-1.7c-0.8,0-1.7,0.9-1.7,1.7c0,0.8,0.9,1.7,1.7,1.7C22,22.8,22.9,21.9,22.9,21.1z"/>
			<path fill="#FFFFFF" d="M8.3,21.9C8.3,22,8.4,22,8.4,22.1c0.6,2.5,2.3,3.8,4.7,4.1c0.2,0,0.4,0,0.5,0.2c0.1,0.2-0.1,0.3-0.3,0.4
				c-1.2,0.9-3.1,0.7-4.4-0.4c-1.2-1-1.6-3.1-0.9-4.3C8.1,22,8.2,21.9,8.3,21.9z"/>
			<path fill="#FFFFFF" d="M27.4,21.8c0.1,0.2,0.2,0.4,0.2,0.5c0.6,2.3,2.1,3.5,4.4,3.9c0.2,0,0.6-0.1,0.7,0.3
				c0.1,0.4-0.3,0.5-0.6,0.6c-1.4,0.7-3.2,0.3-4.3-0.9C26.8,24.9,26.6,23.2,27.4,21.8z"/>
		</g>
	</g>
</g>
</svg>
